<svg xmlns="http://www.w3.org/2000/svg" xmlns:xlink="http://www.w3.org/1999/xlink" width="692.561" height="656.651" viewBox="0 0 692.561 656.651">
  <defs>
    <linearGradient id="linear-gradient" x1="0.5" y1="1" x2="0.5" gradientUnits="objectBoundingBox">
      <stop offset="0" stop-color="#393939"/>
      <stop offset="0.24" stop-color="#323232"/>
      <stop offset="0.58" stop-color="#202020"/>
      <stop offset="0.98" stop-color="#010101"/>
      <stop offset="1"/>
    </linearGradient>
    <linearGradient id="linear-gradient-2" x1="0.145" y1="0.305" x2="0.704" y2="0.825" gradientUnits="objectBoundingBox">
      <stop offset="0.17"/>
      <stop offset="0.2" stop-color="#060606"/>
      <stop offset="0.23" stop-color="#181818"/>
      <stop offset="0.28" stop-color="#353535"/>
      <stop offset="0.33" stop-color="#5e5e5e"/>
      <stop offset="0.38" stop-color="#929292"/>
      <stop offset="0.44" stop-color="#d1d1d1"/>
      <stop offset="0.48" stop-color="#fff"/>
      <stop offset="0.52" stop-color="#eaeaea"/>
      <stop offset="0.62" stop-color="#b3b3b3"/>
      <stop offset="0.76" stop-color="#5c5c5c"/>
      <stop offset="0.9"/>
    </linearGradient>
    <linearGradient id="linear-gradient-3" y1="0.5" x2="1" y2="0.5" gradientUnits="objectBoundingBox">
      <stop offset="0"/>
      <stop offset="0.11" stop-color="#151515"/>
      <stop offset="0.34" stop-color="#4b4b4b"/>
      <stop offset="0.67" stop-color="#a2a2a2"/>
      <stop offset="1" stop-color="#fff"/>
    </linearGradient>
    <linearGradient id="linear-gradient-4" y1="0.5" x2="1" y2="0.5" gradientUnits="objectBoundingBox">
      <stop offset="0" stop-color="#929496"/>
      <stop offset="0.12" stop-color="#b0b1b3"/>
      <stop offset="0.25" stop-color="#cccdce"/>
      <stop offset="0.4" stop-color="#e3e3e4"/>
      <stop offset="0.56" stop-color="#f3f3f3"/>
      <stop offset="0.75" stop-color="#fcfcfc"/>
      <stop offset="1" stop-color="#fff"/>
    </linearGradient>
    <linearGradient id="linear-gradient-5" x1="-2.162" y1="7.113" x2="-1.014" y2="7.113" gradientUnits="objectBoundingBox">
      <stop offset="0" stop-color="#fff"/>
      <stop offset="0.36" stop-color="#efedec"/>
      <stop offset="0.66" stop-color="#d3cecb"/>
      <stop offset="1" stop-color="#d3cecb"/>
    </linearGradient>
  </defs>
  <g id="cd" transform="translate(96.161 95.073)" style="isolation: isolate">
    <g id="Layer_1" data-name="Layer 1">
      <g id="Group_43" data-name="Group 43">
        <circle id="Ellipse_240" data-name="Ellipse 240" cx="234.37" cy="234.37" r="234.37" transform="translate(3.29 0)" opacity="0.52" fill="url(#linear-gradient)"/>
      </g>
      <circle id="Ellipse_241" data-name="Ellipse 241" cx="232.16" cy="232.16" r="232.16" transform="translate(-96.161 233.252) rotate(-45)"/>
      <circle id="Ellipse_242" data-name="Ellipse 242" cx="229.33" cy="229.33" r="229.33" transform="translate(-92.159 233.252) rotate(-45)" fill="#010101"/>
      <circle id="Ellipse_243" data-name="Ellipse 243" cx="226.49" cy="226.49" r="226.49" transform="translate(-88.142 233.252) rotate(-45)" fill="#020202"/>
      <circle id="Ellipse_244" data-name="Ellipse 244" cx="223.65" cy="223.65" r="223.65" transform="translate(-84.126 233.252) rotate(-45)" fill="#030303"/>
      <circle id="Ellipse_245" data-name="Ellipse 245" cx="220.82" cy="220.82" r="220.82" transform="translate(-80.124 233.252) rotate(-45)" fill="#040404"/>
      <circle id="Ellipse_246" data-name="Ellipse 246" cx="217.98" cy="217.98" r="217.98" transform="translate(-76.107 233.252) rotate(-45)" fill="#050505"/>
      <circle id="Ellipse_247" data-name="Ellipse 247" cx="215.15" cy="215.15" r="215.15" transform="translate(-72.105 233.252) rotate(-45)" fill="#060606"/>
      <circle id="Ellipse_248" data-name="Ellipse 248" cx="212.31" cy="212.31" r="212.31" transform="translate(-68.089 233.252) rotate(-45)" fill="#070707"/>
      <circle id="Ellipse_249" data-name="Ellipse 249" cx="209.47" cy="209.47" r="209.47" transform="translate(-64.072 233.252) rotate(-45)" fill="#080808"/>
      <circle id="Ellipse_250" data-name="Ellipse 250" cx="206.64" cy="206.64" r="206.64" transform="translate(-60.07 233.252) rotate(-45)" fill="#090909"/>
      <circle id="Ellipse_251" data-name="Ellipse 251" cx="203.8" cy="203.8" r="203.8" transform="translate(-56.054 233.252) rotate(-45)" fill="#0a0a0a"/>
      <circle id="Ellipse_252" data-name="Ellipse 252" cx="200.97" cy="200.97" r="200.97" transform="translate(-52.052 233.252) rotate(-45)" fill="#0b0b0b"/>
      <circle id="Ellipse_253" data-name="Ellipse 253" cx="198.13" cy="198.13" r="198.13" transform="translate(-48.035 233.252) rotate(-45)" fill="#0c0c0c"/>
      <circle id="Ellipse_254" data-name="Ellipse 254" cx="195.29" cy="195.29" r="195.29" transform="translate(-44.019 233.252) rotate(-45)" fill="#0d0d0d"/>
      <circle id="Ellipse_255" data-name="Ellipse 255" cx="192.46" cy="192.46" r="192.46" transform="translate(-40.017 233.252) rotate(-45)" fill="#0e0e0e"/>
      <circle id="Ellipse_256" data-name="Ellipse 256" cx="189.62" cy="189.62" r="189.62" transform="translate(-36 233.252) rotate(-45)" fill="#0f0f0f"/>
      <circle id="Ellipse_257" data-name="Ellipse 257" cx="186.79" cy="186.79" r="186.79" transform="translate(-31.998 233.252) rotate(-45)" fill="#101010"/>
      <circle id="Ellipse_258" data-name="Ellipse 258" cx="183.95" cy="183.95" r="183.95" transform="translate(-27.982 233.252) rotate(-45)" fill="#111"/>
      <circle id="Ellipse_259" data-name="Ellipse 259" cx="181.11" cy="181.11" r="181.11" transform="translate(-23.965 233.252) rotate(-45)" fill="#111"/>
      <circle id="Ellipse_260" data-name="Ellipse 260" cx="178.28" cy="178.28" r="178.28" transform="translate(-19.963 233.252) rotate(-45)" fill="#121212"/>
      <circle id="Ellipse_261" data-name="Ellipse 261" cx="175.44" cy="175.44" r="175.44" transform="translate(-15.947 233.252) rotate(-45)" fill="#131313"/>
      <circle id="Ellipse_262" data-name="Ellipse 262" cx="172.61" cy="172.61" r="172.61" transform="translate(-11.944 233.252) rotate(-45)" fill="#141414"/>
      <circle id="Ellipse_263" data-name="Ellipse 263" cx="169.77" cy="169.77" r="169.77" transform="translate(-7.928 233.252) rotate(-45)" fill="#151515"/>
      <circle id="Ellipse_264" data-name="Ellipse 264" cx="166.93" cy="166.93" r="166.93" transform="translate(-3.911 233.252) rotate(-45)" fill="#161616"/>
      <circle id="Ellipse_265" data-name="Ellipse 265" cx="164.1" cy="164.1" r="164.1" transform="translate(0.091 233.252) rotate(-45)" fill="#171717"/>
      <circle id="Ellipse_266" data-name="Ellipse 266" cx="161.26" cy="161.26" r="161.26" transform="translate(4.107 233.252) rotate(-45)" fill="#181818"/>
      <circle id="Ellipse_267" data-name="Ellipse 267" cx="158.43" cy="158.43" r="158.43" transform="translate(8.109 233.252) rotate(-45)" fill="#191919"/>
      <circle id="Ellipse_268" data-name="Ellipse 268" cx="155.59" cy="155.59" r="155.59" transform="translate(45.186 349.253) rotate(-76.82)" fill="#1a1a1a"/>
      <circle id="Ellipse_269" data-name="Ellipse 269" cx="152.76" cy="152.76" r="152.76" transform="translate(48.587 347.133) rotate(-76.82)" fill="#1b1b1b"/>
      <circle id="Ellipse_270" data-name="Ellipse 270" cx="149.92" cy="149.92" r="149.92" transform="matrix(0.228, -0.974, 0.974, 0.228, 52, 345.025)" fill="#1c1c1c"/>
      <circle id="Ellipse_271" data-name="Ellipse 271" cx="147.08" cy="147.08" r="147.08" transform="matrix(0.228, -0.974, 0.974, 0.228, 55.413, 342.898)" fill="#1d1d1d"/>
      <circle id="Ellipse_272" data-name="Ellipse 272" cx="144.25" cy="144.25" r="144.25" transform="matrix(0.228, -0.974, 0.974, 0.228, 58.804, 340.778)" fill="#1e1e1e"/>
      <circle id="Ellipse_273" data-name="Ellipse 273" cx="141.41" cy="141.41" r="141.41" transform="matrix(0.228, -0.974, 0.974, 0.228, 62.217, 338.661)" fill="#1f1f1f"/>
      <circle id="Ellipse_274" data-name="Ellipse 274" cx="138.58" cy="138.58" r="138.58" transform="matrix(0.228, -0.974, 0.974, 0.228, 65.608, 336.542)" fill="#202020"/>
      <circle id="Ellipse_275" data-name="Ellipse 275" cx="135.74" cy="135.74" r="135.74" transform="translate(69.034 334.438) rotate(-76.8)" fill="#212121"/>
      <circle id="Ellipse_276" data-name="Ellipse 276" cx="132.9" cy="132.9" r="132.9" transform="translate(72.437 332.311) rotate(-76.8)" fill="#222"/>
      <circle id="Ellipse_277" data-name="Ellipse 277" cx="130.07" cy="130.07" r="130.07" transform="translate(75.839 330.192) rotate(-76.8)" fill="#232323"/>
      <path id="Path_1114" data-name="Path 1114" d="M234.76,446C126.05,446,37.61,357.53,37.61,248.81S126.05,51.66,234.76,51.66,431.91,140.1,431.91,248.81,343.47,446,234.76,446Zm0-392.58C127,53.39,39.34,141.06,39.34,248.81S127,444.24,234.76,444.24s195.42-87.67,195.42-195.43S342.52,53.39,234.76,53.39Z" transform="translate(-2.6 -15.56)"/>
      <path id="Path_1115" data-name="Path 1115" d="M234.76,398.38c-82.47,0-149.57-67.09-149.57-149.57S152.29,99.25,234.76,99.25s149.57,67.09,149.57,149.56S317.23,398.38,234.76,398.38Zm0-297.4C153.24,101,86.93,167.3,86.93,248.81s66.31,147.84,147.83,147.84S382.6,330.33,382.6,248.81,316.28,101,234.76,101Z" transform="translate(-2.6 -15.56)"/>
      <g id="Group_44" data-name="Group 44">
        <path id="Path_1116" data-name="Path 1116" d="M312,226.61l131.88-78.33a233.16,233.16,0,0,0-85.42-95.75l-76.7,132.7A81.39,81.39,0,0,1,312,226.61Z" transform="translate(-2.6 -15.56)" opacity="0.51" fill="url(#linear-gradient-2)"/>
      </g>
      <g id="Group_45" data-name="Group 45">
        <path id="Path_1117" data-name="Path 1117" d="M178.17,303.88,60.51,400.63a233,233,0,0,0,33.12,32l99.94-114.95a81.21,81.21,0,0,1-15.4-13.8Z" transform="translate(-2.6 -15.56)" opacity="0.49" fill="url(#linear-gradient-3)"/>
      </g>
      <path id="Path_1118" data-name="Path 1118" d="M93.63,432.61c2.78,2.21,5.6,4.37,8.49,6.45l97.74-117.47q-3.24-1.83-6.29-3.93Z" transform="translate(-2.6 -15.56)" fill="#191919"/>
      <circle id="Ellipse_278" data-name="Ellipse 278" cx="104.58" cy="104.58" r="104.58" transform="translate(95.355 177.062) rotate(-22.67)"/>
      <circle id="Ellipse_279" data-name="Ellipse 279" cx="81.22" cy="81.22" r="81.22" transform="matrix(0.229, -0.973, 0.973, 0.229, 134.511, 293.732)" fill="#7f1c2d"/>
      <circle id="Ellipse_280" data-name="Ellipse 280" cx="80.85" cy="80.85" r="80.85" transform="matrix(0.229, -0.973, 0.973, 0.229, 134.956, 293.456)" fill="#801d2e"/>
      <circle id="Ellipse_281" data-name="Ellipse 281" cx="80.48" cy="80.48" r="80.48" transform="matrix(0.229, -0.973, 0.973, 0.229, 135.401, 293.171)" fill="#811e2e"/>
      <circle id="Ellipse_282" data-name="Ellipse 282" cx="80.11" cy="80.11" r="80.11" transform="matrix(0.229, -0.973, 0.973, 0.229, 135.846, 292.895)" fill="#821f2f"/>
      <circle id="Ellipse_283" data-name="Ellipse 283" cx="79.75" cy="79.75" r="79.75" transform="matrix(0.229, -0.973, 0.973, 0.229, 136.278, 292.627)" fill="#831f30"/>
      <circle id="Ellipse_284" data-name="Ellipse 284" cx="79.134" cy="79.134" r="79.134" transform="translate(136.314 293.083) rotate(-76.661)" fill="#842031"/>
      <circle id="Ellipse_285" data-name="Ellipse 285" cx="79.01" cy="79.01" r="79.01" transform="matrix(0.229, -0.973, 0.973, 0.229, 137.168, 292.076)" fill="#852131"/>
      <circle id="Ellipse_286" data-name="Ellipse 286" cx="78.64" cy="78.64" r="78.64" transform="matrix(0.229, -0.973, 0.973, 0.229, 137.613, 291.801)" fill="#862232"/>
      <circle id="Ellipse_287" data-name="Ellipse 287" cx="78.28" cy="78.28" r="78.28" transform="matrix(0.229, -0.973, 0.973, 0.229, 138.046, 291.533)" fill="#872333"/>
      <circle id="Ellipse_288" data-name="Ellipse 288" cx="77.91" cy="77.91" r="77.91" transform="matrix(0.229, -0.973, 0.973, 0.229, 138.491, 291.257)" fill="#882433"/>
      <circle id="Ellipse_289" data-name="Ellipse 289" cx="77.54" cy="77.54" r="77.54" transform="matrix(0.229, -0.973, 0.973, 0.229, 138.926, 290.972)" fill="#892534"/>
      <circle id="Ellipse_290" data-name="Ellipse 290" cx="77.17" cy="77.17" r="77.17" transform="matrix(0.229, -0.973, 0.973, 0.229, 139.37, 290.696)" fill="#892535"/>
      <circle id="Ellipse_291" data-name="Ellipse 291" cx="76.81" cy="76.81" r="76.81" transform="matrix(0.229, -0.973, 0.973, 0.229, 139.803, 290.428)" fill="#8a2635"/>
      <circle id="Ellipse_292" data-name="Ellipse 292" cx="76.44" cy="76.44" r="76.44" transform="matrix(0.229, -0.973, 0.973, 0.229, 140.248, 290.153)" fill="#8b2736"/>
      <circle id="Ellipse_293" data-name="Ellipse 293" cx="76.07" cy="76.07" r="76.07" transform="matrix(0.229, -0.973, 0.973, 0.229, 140.693, 289.877)" fill="#8c2837"/>
      <circle id="Ellipse_294" data-name="Ellipse 294" cx="75.7" cy="75.7" r="75.7" transform="matrix(0.229, -0.973, 0.973, 0.229, 141.138, 289.602)" fill="#8d2937"/>
      <circle id="Ellipse_295" data-name="Ellipse 295" cx="75.34" cy="75.34" r="75.34" transform="matrix(0.229, -0.973, 0.973, 0.229, 141.571, 289.334)" fill="#8e2a38"/>
      <circle id="Ellipse_296" data-name="Ellipse 296" cx="74.97" cy="74.97" r="74.97" transform="matrix(0.229, -0.973, 0.973, 0.229, 142.016, 289.058)" fill="#8f2a39"/>
      <circle id="Ellipse_297" data-name="Ellipse 297" cx="74.6" cy="74.6" r="74.6" transform="matrix(0.229, -0.973, 0.973, 0.229, 142.46, 288.773)" fill="#902b3a"/>
      <circle id="Ellipse_298" data-name="Ellipse 298" cx="74.23" cy="74.23" r="74.23" transform="matrix(0.229, -0.973, 0.973, 0.229, 142.905, 288.497)" fill="#912c3a"/>
      <circle id="Ellipse_299" data-name="Ellipse 299" cx="73.87" cy="73.87" r="73.87" transform="matrix(0.229, -0.973, 0.973, 0.229, 143.338, 288.229)" fill="#922d3b"/>
      <path id="Path_1119" data-name="Path 1119" d="M244,248.81a9.23,9.23,0,1,1-9.23-9.22A9.23,9.23,0,0,1,244,248.81Z" transform="translate(-2.6 -15.56)" fill="#7f2b39"/>
      <path id="Path_1120" data-name="Path 1120" d="M597.27,102.2A61.32,61.32,0,1,1,536,40.88,61.32,61.32,0,0,1,597.27,102.2Z" transform="translate(-2.6 -15.56)" fill="#010101"/>
      <path id="Path_1121" data-name="Path 1121" d="M597.27,102.2A61.32,61.32,0,1,1,536,40.88,61.32,61.32,0,0,1,597.27,102.2Z" transform="translate(-2.6 -15.56)" fill="#010101"/>
      <path id="Path_1122" data-name="Path 1122" d="M597.27,102.2A61.32,61.32,0,1,1,536,40.88,61.32,61.32,0,0,1,597.27,102.2Z" transform="translate(-2.6 -15.56)" fill="#2d2d2d"/>
      <path id="Path_1123" data-name="Path 1123" d="M536,165.25a63.05,63.05,0,1,1,63-63,63.05,63.05,0,0,1-63,63Zm0-122.64a59.59,59.59,0,1,0,59.59,59.59A59.59,59.59,0,0,0,536,42.61Z" transform="translate(-2.6 -15.56)" fill="url(#linear-gradient-4)" style="mix-blend-mode: multiply;isolation: isolate"/>
      <rect id="Rectangle_24" data-name="Rectangle 24" width="49.61" height="26.77" transform="translate(466.655 442.221) rotate(-71.928)" fill="#fff"/>
      <path id="Path_1124" data-name="Path 1124" d="M494.25,427.76a5,5,0,0,1-2.2-.13,4.91,4.91,0,0,1-3.31-6.1l16.36-55.17,16.36-55.16a193.647,193.647,0,0,0,8-53.15l1.17-117.42a4.91,4.91,0,0,1,9.81.1l-1.17,117.42a203.489,203.489,0,0,1-8.4,55.85l-16.36,55.16-16.36,55.17a4.89,4.89,0,0,1-3.9,3.43Z" transform="translate(-2.6 -15.56)" fill="#fff"/>
      <path id="Path_1125" data-name="Path 1125" d="M535.63,135.78a4.75,4.75,0,0,1,4.31,3.38,5.13,5.13,0,0,1,.24,1.62L539,258.14a203,203,0,0,1-8,54.44c-.12.44-.26.92-.39,1.35l-16.35,55.12L498.6,421.84s-.71,2.44-.7,2.47a4.77,4.77,0,0,1-3,3.29h0a5.219,5.219,0,0,1-.66.15h-.1a4.9,4.9,0,0,1-5.41-6.25l16.36-55.17,16.36-55.16a193.647,193.647,0,0,0,8-53.15l1.17-117.42a4.89,4.89,0,0,1,5-4.85Z" transform="translate(-2.6 -15.56)" fill="#fefefe"/>
      <path id="Path_1126" data-name="Path 1126" d="M535.68,135.79a4.58,4.58,0,0,1,4,3.43,5.059,5.059,0,0,1,.23,1.61l-1.17,117.31a202.672,202.672,0,0,1-8,54.39c-.12.41-.27.93-.4,1.34L514,368.94l-15.68,52.89c0,.06-.7,2.41-.68,2.47a4.65,4.65,0,0,1-2.73,3.29h0a3.528,3.528,0,0,1-.66.16h-.1a4.9,4.9,0,0,1-5.41-6.25l16.36-55.17,16.36-55.16a193.647,193.647,0,0,0,8-53.15l1.17-117.42a4.9,4.9,0,0,1,5.06-4.84Z" transform="translate(-2.6 -15.56)" fill="#fdfdfd"/>
      <path id="Path_1127" data-name="Path 1127" d="M535.73,135.8a4.46,4.46,0,0,1,3.72,3.47,5.347,5.347,0,0,1,.22,1.61L538.5,258.13a202.7,202.7,0,0,1-8,54.34l-.4,1.35-16.32,55-15.71,53c0,.1-.68,2.39-.65,2.49a4.6,4.6,0,0,1-2.49,3.29h0a5.276,5.276,0,0,1-.66.16h-.1a4.91,4.91,0,0,1-5.42-6.25l16.36-55.17,16.36-55.16a193.647,193.647,0,0,0,8-53.15l1.17-117.42a4.91,4.91,0,0,1,3.94-4.75A5,5,0,0,1,535.73,135.8Z" transform="translate(-2.6 -15.56)" fill="#fcfcfc"/>
      <path id="Path_1128" data-name="Path 1128" d="M535.78,135.81c1.54.11,2.87,1.56,3.42,3.52a5.688,5.688,0,0,1,.22,1.61l-1.18,117.19a201.868,201.868,0,0,1-8,54.28l-.39,1.35-16.31,55L497.82,421.8c0,.13-.66,2.36-.63,2.49a4.64,4.64,0,0,1-2.24,3.3h0a4.544,4.544,0,0,1-.66.16h-.1a4.91,4.91,0,0,1-5.42-6.25l16.36-55.17,16.36-55.16a193.647,193.647,0,0,0,8-53.15l1.17-117.42a4.9,4.9,0,0,1,4-4.75,5.131,5.131,0,0,1,1.12-.04Z" transform="translate(-2.6 -15.56)" fill="#fbfbfb"/>
      <path id="Path_1129" data-name="Path 1129" d="M535.82,135.81c1.39.14,2.61,1.61,3.14,3.57a5.687,5.687,0,0,1,.2,1.61L538,258.12a201.583,201.583,0,0,1-8,54.24l-.4,1.34-16.28,54.92-15.77,53.16c-.05.17-.64,2.34-.6,2.5a4.68,4.68,0,0,1-2,3.31h0a5,5,0,0,1-.67.16h-.1a4.91,4.91,0,0,1-5.42-6.25l16.36-55.17,16.36-55.16a193.652,193.652,0,0,0,8-53.15l1.17-117.42a4.88,4.88,0,0,1,4-4.75,5.171,5.171,0,0,1,1.17-.04Z" transform="translate(-2.6 -15.56)" fill="#fafafa"/>
      <path id="Path_1130" data-name="Path 1130" d="M535.87,135.82c1.24.16,2.34,1.64,2.84,3.61a6.569,6.569,0,0,1,.2,1.61l-1.18,117.07a201.161,201.161,0,0,1-8,54.19c-.1.35-.28,1-.39,1.34l-16.27,54.88-15.8,53.25a21.316,21.316,0,0,0-.57,2.5,4.89,4.89,0,0,1-1.76,3.32h0a4.887,4.887,0,0,1-.66.16h-.1a4.91,4.91,0,0,1-5.43-6.25l16.36-55.17,16.36-55.16a193.647,193.647,0,0,0,8-53.15l1.17-117.42a4.88,4.88,0,0,1,4.07-4.76,5.159,5.159,0,0,1,1.16-.02Z" transform="translate(-2.6 -15.56)" fill="#f9f9f9"/>
      <path id="Path_1131" data-name="Path 1131" d="M535.92,135.83c1.09.18,2.07,1.68,2.55,3.66a6.491,6.491,0,0,1,.18,1.6l-1.17,117a200.859,200.859,0,0,1-8,54.14c-.1.33-.29,1-.39,1.33l-16.26,54.83L497,421.75a18.093,18.093,0,0,0-.55,2.52,5.17,5.17,0,0,1-1.52,3.32h0c-.22.06-.44.12-.67.16h-.1a4.91,4.91,0,0,1-5.43-6.25l16.36-55.17,16.36-55.16a193.647,193.647,0,0,0,8-53.15l1.17-117.42a4.87,4.87,0,0,1,4.11-4.76A5.25,5.25,0,0,1,535.92,135.83Z" transform="translate(-2.6 -15.56)" fill="#f8f8f8"/>
      <path id="Path_1132" data-name="Path 1132" d="M536,135.84c.94.21,1.8,1.71,2.25,3.7a7.092,7.092,0,0,1,.18,1.61l-1.17,117a200.831,200.831,0,0,1-8,54.09c-.1.32-.3,1-.39,1.33L512.6,368.3l-15.85,53.44a15.259,15.259,0,0,0-.52,2.52,5.76,5.76,0,0,1-1.27,3.32h0a4.913,4.913,0,0,1-.66.17h-.1a5,5,0,0,1-2.13-.15,4.9,4.9,0,0,1-3.31-6.1l16.36-55.17,16.36-55.16a193.647,193.647,0,0,0,8-53.15l1.17-117.42a4.88,4.88,0,0,1,4.15-4.77A4.819,4.819,0,0,1,536,135.84Z" transform="translate(-2.6 -15.56)" fill="#f7f7f7"/>
      <path id="Path_1133" data-name="Path 1133" d="M536,135.85c.79.23,1.53,1.75,2,3.74a7.087,7.087,0,0,1,.16,1.61L537,258.09a200,200,0,0,1-8,54c-.08.3-.3,1-.39,1.33L512.36,368.2l-15.87,53.52a13.641,13.641,0,0,0-.5,2.53,6.75,6.75,0,0,1-1,3.33h0a5.071,5.071,0,0,1-.67.17h-.1a5,5,0,0,1-2.13-.15,4.9,4.9,0,0,1-3.31-6.1l16.36-55.17,16.36-55.16a193.652,193.652,0,0,0,8-53.15l1.17-117.42a4.87,4.87,0,0,1,4.2-4.77A4.379,4.379,0,0,1,536,135.85Z" transform="translate(-2.6 -15.56)" fill="#f6f6f6"/>
      <path id="Path_1134" data-name="Path 1134" d="M536.06,135.85c.65.26,1.27,1.8,1.67,3.8a7.691,7.691,0,0,1,.16,1.6l-1.17,116.84a199.769,199.769,0,0,1-8,54l-.39,1.32L512.11,368.1l-15.9,53.62a12.047,12.047,0,0,0-.47,2.54,8.81,8.81,0,0,1-.79,3.33h0a5.065,5.065,0,0,1-.67.17h-.1a4.84,4.84,0,0,1-2.13-.14,4.9,4.9,0,0,1-3.31-6.1l16.36-55.17,16.36-55.16a193.647,193.647,0,0,0,8-53.15l1.17-117.42a4.87,4.87,0,0,1,4.24-4.78,5.35,5.35,0,0,1,1.19.01Z" transform="translate(-2.6 -15.56)" fill="#f5f5f5"/>
      <path id="Path_1135" data-name="Path 1135" d="M536.11,135.86c.49.28,1,1.83,1.38,3.84a7.682,7.682,0,0,1,.14,1.6l-1.17,116.78a199.738,199.738,0,0,1-8,53.94c-.08.27-.31,1.06-.39,1.32L511.88,368,496,421.69a11,11,0,0,0-.44,2.55,13,13,0,0,1-.55,3.34h0a5.065,5.065,0,0,1-.67.17h-.1a4.9,4.9,0,0,1-5.45-6.24l16.36-55.17,16.36-55.16a193.649,193.649,0,0,0,8-53.15l1.17-117.42a4.85,4.85,0,0,1,5.49-4.77Z" transform="translate(-2.6 -15.56)" fill="#f4f4f4"/>
      <path id="Path_1136" data-name="Path 1136" d="M536.16,135.87c.34.3.73,1.87,1.08,3.88a8.528,8.528,0,0,1,.14,1.61l-1.17,116.71a199.068,199.068,0,0,1-8,53.9c-.07.25-.31,1.07-.39,1.32l-16.19,54.59-15.95,53.8a10.062,10.062,0,0,0-.42,2.55,32.223,32.223,0,0,1-.3,3.35h0a5.065,5.065,0,0,1-.67.17h-.1a4.9,4.9,0,0,1-5.45-6.24l16.36-55.17,16.36-55.16a193.647,193.647,0,0,0,8-53.15l1.17-117.42a4.87,4.87,0,0,1,4.32-4.79A5,5,0,0,1,536.16,135.87Z" transform="translate(-2.6 -15.56)" fill="#f3f3f3"/>
      <path id="Path_1137" data-name="Path 1137" d="M536.21,135.88a24.142,24.142,0,0,1,.79,3.93,8.43,8.43,0,0,1,.12,1.6L536,258.07a198.639,198.639,0,0,1-8,53.84l-.39,1.32L511.4,367.77l-16,53.89a9.72,9.72,0,0,0-.39,2.57c0,1.6-.09,2.85-.06,3.35h0a5.543,5.543,0,0,1-.67.18h-.11a4.9,4.9,0,0,1-5.45-6.24l16.36-55.17,16.36-55.16a193.645,193.645,0,0,0,8-53.15l1.17-117.42a4.87,4.87,0,0,1,4.37-4.79A5,5,0,0,1,536.21,135.88Z" transform="translate(-2.6 -15.56)" fill="#f2f2f2"/>
      <path id="Path_1138" data-name="Path 1138" d="M536.26,135.88c0,.35.19,2,.5,4a10.489,10.489,0,0,1,.11,1.6l-1.17,116.6a198.281,198.281,0,0,1-8,53.79c-.06.22-.32,1.1-.38,1.32l-16.17,54.5-16,54a9,9,0,0,0-.37,2.58,16.122,16.122,0,0,0,.18,3.35h0a5.06,5.06,0,0,1-.67.17h-.1a4.9,4.9,0,0,1-5.46-6.24l16.36-55.17,16.36-55.16a193.647,193.647,0,0,0,8-53.15l1.17-117.42a4.88,4.88,0,0,1,4.41-4.8A5.629,5.629,0,0,1,536.26,135.88Z" transform="translate(-2.6 -15.56)" fill="#f2f2f2"/>
      <path id="Path_1139" data-name="Path 1139" d="M536.3,135.89a16.7,16.7,0,0,0,.21,4,10.576,10.576,0,0,1,.11,1.6l-1.17,116.54a198,198,0,0,1-8,53.75l-.39,1.31-16.15,54.45-16,54.07a8.3,8.3,0,0,0-.34,2.58,9.431,9.431,0,0,0,.42,3.36h0a5.2,5.2,0,0,1-.68.17h-.1a4.9,4.9,0,0,1-5.46-6.24l16.36-55.17,16.36-55.16a193.652,193.652,0,0,0,8-53.15l1.17-117.42a4.87,4.87,0,0,1,4.45-4.8,5,5,0,0,1,1.21.11Z" transform="translate(-2.6 -15.56)" fill="#f1f1f1"/>
      <path id="Path_1140" data-name="Path 1140" d="M536.35,135.9a9.381,9.381,0,0,0-.08,4.07,11.992,11.992,0,0,1,.09,1.6l-1.17,116.48a197.938,197.938,0,0,1-8,53.69c-.06.19-.34,1.13-.39,1.31l-16.13,54.4L494.6,421.61a7.819,7.819,0,0,0-.31,2.6,7.2,7.2,0,0,0,.66,3.36h0a5.06,5.06,0,0,1-.67.17h-.11a4.9,4.9,0,0,1-5.46-6.24l16.36-55.17,16.36-55.16a193.652,193.652,0,0,0,8-53.15L530.6,140.6a4.86,4.86,0,0,1,4.49-4.8A4.65,4.65,0,0,1,536.35,135.9Z" transform="translate(-2.6 -15.56)" fill="#f0f0f0"/>
      <path id="Path_1141" data-name="Path 1141" d="M536.4,135.91c-.41.42-.61,2.06-.38,4.11a12.075,12.075,0,0,1,.09,1.6L534.94,258a197.329,197.329,0,0,1-8,53.65c-.05.16-.33,1.13-.38,1.3l-16.12,54.36L494.36,421.6a7.311,7.311,0,0,0-.29,2.6,5.76,5.76,0,0,0,.91,3.37h0a5.2,5.2,0,0,1-.68.17h-.1a5,5,0,0,1-2.16-.14,4.9,4.9,0,0,1-3.31-6.1l16.36-55.17,16.36-55.16a193.647,193.647,0,0,0,8-53.15l1.17-117.42a4.87,4.87,0,0,1,4.54-4.81,4.69,4.69,0,0,1,1.24.12Z" transform="translate(-2.6 -15.56)" fill="#efefef"/>
      <path id="Path_1142" data-name="Path 1142" d="M536.45,135.91c-.56.45-.88,2.1-.67,4.16.05.17.07,1.41.07,1.6L534.69,258a196.859,196.859,0,0,1-8,53.6,12.849,12.849,0,0,1-.39,1.3l-16.1,54.31-16.12,54.34a6.92,6.92,0,0,0-.26,2.61c.12,1.6.52,2.88,1.15,3.38h0a3.905,3.905,0,0,1-.67.18h-.11a5,5,0,0,1-2.16-.14,4.9,4.9,0,0,1-3.31-6.1l16.36-55.17,16.36-55.16a193.647,193.647,0,0,0,8-53.15l1.17-117.42a4.87,4.87,0,0,1,4.58-4.81A4.76,4.76,0,0,1,536.45,135.91Z" transform="translate(-2.6 -15.56)" fill="#eee"/>
      <path id="Path_1143" data-name="Path 1143" d="M536.5,135.92c-.71.47-1.15,2.14-1,4.21.05.15.07,1.43.07,1.59L534.43,258a196.8,196.8,0,0,1-8,53.54l-.39,1.3L510,367.14l-16.15,54.43a6.719,6.719,0,0,0-.24,2.61c.17,1.6.66,2.89,1.4,3.39h0a4,4,0,0,1-.68.18h-.1a5,5,0,0,1-2.17-.14,4.9,4.9,0,0,1-3.31-6.1l16.36-55.17,16.36-55.16a193.647,193.647,0,0,0,8-53.15l1.17-117.42a4.88,4.88,0,0,1,4.62-4.82,5.282,5.282,0,0,1,1.24.13Z" transform="translate(-2.6 -15.56)" fill="#ededed"/>
      <path id="Path_1144" data-name="Path 1144" d="M536.55,135.93c-.86.49-1.42,2.18-1.26,4.25,0,.13.05,1.45.05,1.6L534.18,258a196.139,196.139,0,0,1-8,53.5l-.38,1.29L509.73,367l-16.17,54.52a6.43,6.43,0,0,0-.22,2.63,4.5,4.5,0,0,0,1.64,3.38h0a5.225,5.225,0,0,1-.68.18h-.1a5,5,0,0,1-2.17-.14,4.9,4.9,0,0,1-3.31-6.1l16.36-55.17,16.36-55.16a193.649,193.649,0,0,0,8-53.15l1.17-117.42a4.84,4.84,0,0,1,5.93-4.7Z" transform="translate(-2.6 -15.56)" fill="#ececec"/>
      <path id="Path_1145" data-name="Path 1145" d="M536.59,135.94c-1,.52-1.68,2.21-1.55,4.3,0,.11.05,1.46.05,1.59L533.92,258a196.162,196.162,0,0,1-8,53.45l-.39,1.3-16.06,54.16-16.2,54.62a6.071,6.071,0,0,0-.19,2.63,4.36,4.36,0,0,0,1.89,3.39h0a5.689,5.689,0,0,1-.68.18h-.11a5,5,0,0,1-2.17-.14,4.9,4.9,0,0,1-3.31-6.1l16.36-55.17,16.36-55.16a193.652,193.652,0,0,0,8-53.15l1.17-117.42a4.89,4.89,0,0,1,4.71-4.83,4.82,4.82,0,0,1,1.29.18Z" transform="translate(-2.6 -15.56)" fill="#ebebeb"/>
      <path id="Path_1146" data-name="Path 1146" d="M536.64,136c-1.15.54-1.95,2.25-1.84,4.34v1.59L533.67,258a195.363,195.363,0,0,1-8,53.39c0,.09-.35,1.21-.38,1.3l-16,54.12L493,421.52a6,6,0,0,0-.17,2.64,4.38,4.38,0,0,0,2.13,3.4h0a5.224,5.224,0,0,1-.68.18h-.1a5.061,5.061,0,0,1-2.18-.14,4.9,4.9,0,0,1-3.31-6.1l16.36-55.17,16.36-55.16a193.65,193.65,0,0,0,8-53.15l1.17-117.42a4.82,4.82,0,0,1,6-4.68Z" transform="translate(-2.6 -15.56)" fill="#eaeaea"/>
      <path id="Path_1147" data-name="Path 1147" d="M536.69,136c-1.3.57-2.22,2.29-2.14,4.39v1.59L533.42,258a195.072,195.072,0,0,1-8,53.35l-.38,1.29-16,54.07-16.25,54.8a5.7,5.7,0,0,0-.14,2.65,4.4,4.4,0,0,0,2.37,3.4h0a5.763,5.763,0,0,1-.68.19h-.11a5.061,5.061,0,0,1-2.18-.14,4.9,4.9,0,0,1-3.31-6.1l16.36-55.17,16.36-55.16a193.647,193.647,0,0,0,8-53.15l1.17-117.42a4.89,4.89,0,0,1,4.79-4.84A5.412,5.412,0,0,1,536.69,136Z" transform="translate(-2.6 -15.56)" fill="#e9e9e9"/>
      <path id="Path_1148" data-name="Path 1148" d="M536.74,136a4.51,4.51,0,0,0-2.43,4.44s0,1.52,0,1.59l-1.16,116a195.091,195.091,0,0,1-8,53.3s-.37,1.24-.38,1.29l-16,54-16.28,54.89a5.48,5.48,0,0,0-.11,2.66,4.49,4.49,0,0,0,2.61,3.41h0a5.27,5.27,0,0,1-.68.19h-.11a5.07,5.07,0,0,1-2.18-.14,4.9,4.9,0,0,1-3.31-6.1l16.36-55.17,16.36-55.16a193.647,193.647,0,0,0,8-53.15l1.17-117.42a4.9,4.9,0,0,1,4.84-4.84,4.59,4.59,0,0,1,1.3.21Z" transform="translate(-2.6 -15.56)" fill="#e8e8e8"/>
      <path id="Path_1149" data-name="Path 1149" d="M536.79,136a4.6,4.6,0,0,0-2.72,4.48v1.59l-1.16,116a194.42,194.42,0,0,1-8,53.25l-.38,1.28-16,54-16.3,55a5.24,5.24,0,0,0-.09,2.66,4.57,4.57,0,0,0,2.86,3.41h0a5.407,5.407,0,0,1-.69.19h-.1a5.11,5.11,0,0,1-2.19-.14,4.9,4.9,0,0,1-3.31-6.1l16.36-55.17,16.36-55.16a193.652,193.652,0,0,0,8-53.15l1.17-117.42a4.91,4.91,0,0,1,4.88-4.85,5.09,5.09,0,0,1,1.31.13Z" transform="translate(-2.6 -15.56)" fill="#e7e7e7"/>
      <path id="Path_1150" data-name="Path 1150" d="M536.83,136a4.73,4.73,0,0,0-3,4.52s0,1.57,0,1.59L532.65,258a194.382,194.382,0,0,1-8,53.2s-.38,1.26-.38,1.28l-16,53.93L492,421.46a5.09,5.09,0,0,0-.06,2.68,4.71,4.71,0,0,0,3.1,3.41h0a5.271,5.271,0,0,1-.68.19h-.11a5.109,5.109,0,0,1-2.19-.14,4.9,4.9,0,0,1-3.31-6.1l16.36-55.17,16.36-55.16a193.652,193.652,0,0,0,8-53.15l1.17-117.42a4.91,4.91,0,0,1,4.92-4.85A4.58,4.58,0,0,1,536.83,136Z" transform="translate(-2.6 -15.56)" fill="#e6e6e6"/>
      <path id="Path_1151" data-name="Path 1151" d="M533.58,140.56,532.4,258a194,194,0,0,1-8,53.14l-16.36,55.17L491.7,421.45a4.9,4.9,0,0,0,3.3,6.1h0a4.359,4.359,0,0,1-.79.2,5,5,0,0,1-2.2-.13,4.91,4.91,0,0,1-3.31-6.1l16.36-55.17,16.36-55.16a193.652,193.652,0,0,0,8-53.15l1.17-117.42a4.9,4.9,0,0,1,5-4.85,5,5,0,0,1,1.3.2,4.9,4.9,0,0,0-3.31,4.59Z" transform="translate(-2.6 -15.56)" fill="#e5e5e5"/>
      <rect id="Rectangle_25" data-name="Rectangle 25" width="109.92" height="68.7" transform="matrix(0.01, -1, 1, 0.01, 498.351, 149.097)" fill="url(#linear-gradient-5)"/>
      <path id="Path_1152" data-name="Path 1152" d="M563.93,146.27l-62.35-.62,2.24-102.58,61.13,1.84Z" fill="#d8d7d6"/>
      <path id="Path_1153" data-name="Path 1153" d="M550.32,88.11a14.23,14.23,0,1,1-14.09-14.37,14.23,14.23,0,0,1,14.09,14.37Z" transform="translate(-2.6 -15.56)" fill="#8b807e"/>
      <g id="Group_46" data-name="Group 46" opacity="0.7">
        <path id="Path_1154" data-name="Path 1154" d="M466.54,440.57l15.28-47.2,6.1,1.98-15.1,47.25Z" fill="#a0a0a0"/>
        <path id="Path_1155" data-name="Path 1155" d="M466.63,440.6l15.27-47.2,6.1,1.97-15.11,47.26Z" fill="#a1a1a1"/>
        <path id="Path_1156" data-name="Path 1156" d="M466.71,440.63l15.28-47.2,6.09,1.97-15.11,47.25Z" fill="#a2a2a2"/>
        <path id="Path_1157" data-name="Path 1157" d="M466.8,440.65l15.27-47.2,6.09,1.97-15.11,47.26Z" fill="#a3a3a3"/>
        <path id="Path_1158" data-name="Path 1158" d="M466.89,440.68l15.26-47.2,6.09,1.97L473.12,442.7Z" fill="#a4a4a4"/>
        <path id="Path_1159" data-name="Path 1159" d="M466.97,440.71l15.27-47.2,6.08,1.97L473.2,442.73Z" fill="#a5a5a5"/>
        <path id="Path_1160" data-name="Path 1160" d="M467.06,440.74l15.26-47.21,6.08,1.97-15.12,47.25Z" fill="#a6a6a6"/>
        <path id="Path_1161" data-name="Path 1161" d="M467.14,440.76l15.26-47.2,6.08,1.97-15.13,47.25Z" fill="#a7a7a7"/>
        <path id="Path_1162" data-name="Path 1162" d="M467.23,440.79l15.26-47.2,6.07,1.96L473.43,442.8Z" fill="#a8a8a8"/>
        <path id="Path_1163" data-name="Path 1163" d="M467.32,440.82l15.25-47.2,6.07,1.96L473.5,442.82Z" fill="#a9a9a9"/>
        <path id="Path_1164" data-name="Path 1164" d="M467.4,440.85l15.25-47.21,6.07,1.97-15.14,47.24Z" fill="#aaa"/>
        <path id="Path_1165" data-name="Path 1165" d="M467.49,440.88l15.25-47.21,6.06,1.96-15.14,47.25Z" fill="#ababab"/>
        <path id="Path_1166" data-name="Path 1166" d="M467.57,440.9l15.25-47.2,6.06,1.96L473.73,442.9Z" fill="#acacac"/>
        <path id="Path_1167" data-name="Path 1167" d="M467.66,440.93l15.24-47.21,6.06,1.96-15.15,47.24Z" fill="#adadad"/>
        <path id="Path_1168" data-name="Path 1168" d="M467.75,440.96l15.24-47.21,6.05,1.96-15.15,47.24Z" fill="#aeaeae"/>
        <path id="Path_1169" data-name="Path 1169" d="M467.83,440.99l15.24-47.21,6.05,1.95-15.16,47.24Z" fill="#afafaf"/>
        <path id="Path_1170" data-name="Path 1170" d="M467.92,441.02l15.24-47.22,6.04,1.96L474.04,443Z" fill="#b0b0b0"/>
        <path id="Path_1171" data-name="Path 1171" d="M468,441.04l15.24-47.21,6.04,1.96-15.16,47.23Z" fill="#b1b1b1"/>
        <path id="Path_1172" data-name="Path 1172" d="M468.09,441.07l15.23-47.21,6.04,1.95-15.17,47.24Z" fill="#b2b2b2"/>
        <path id="Path_1173" data-name="Path 1173" d="M468.18,441.1l15.23-47.22,6.03,1.96-15.17,47.23Z" fill="#b3b3b3"/>
        <path id="Path_1174" data-name="Path 1174" d="M468.26,441.13l15.23-47.22,6.03,1.95L474.35,443.1Z" fill="#b4b4b4"/>
        <path id="Path_1175" data-name="Path 1175" d="M468.35,441.15l15.22-47.21,6.03,1.95-15.18,47.23Z" fill="#b5b5b5"/>
        <path id="Path_1176" data-name="Path 1176" d="M468.43,441.18l15.23-47.21,6.02,1.95L474.5,443.15Z" fill="#b6b6b6"/>
        <path id="Path_1177" data-name="Path 1177" d="M468.52,441.21l15.22-47.22,6.02,1.95-15.19,47.23Z" fill="#b7b7b7"/>
        <path id="Path_1178" data-name="Path 1178" d="M468.61,441.24l15.21-47.22,6.02,1.95L474.65,443.2Z" fill="#b8b8b8"/>
        <path id="Path_1179" data-name="Path 1179" d="M468.69,441.27l15.22-47.22,6.01,1.94-15.19,47.23Z" fill="#b9b9b9"/>
        <path id="Path_1180" data-name="Path 1180" d="M468.78,441.29l15.21-47.22,6.01,1.95-15.2,47.23Z" fill="#bababa"/>
        <path id="Path_1181" data-name="Path 1181" d="M468.86,441.32l15.21-47.22,6.01,1.95-15.2,47.22Z" fill="#bbb"/>
        <path id="Path_1182" data-name="Path 1182" d="M468.95,441.35l15.21-47.22,6,1.94L474.95,443.3Z" fill="#bcbcbc"/>
        <path id="Path_1183" data-name="Path 1183" d="M469.04,441.38l15.2-47.22,6,1.94-15.21,47.22Z" fill="#bdbdbd"/>
        <path id="Path_1184" data-name="Path 1184" d="M469.12,441.4l15.21-47.22,5.99,1.94-15.21,47.23Z" fill="#bebebe"/>
        <path id="Path_1185" data-name="Path 1185" d="M469.21,441.43l15.2-47.22,5.99,1.94-15.21,47.22Z" fill="#bfbfbf"/>
        <path id="Path_1186" data-name="Path 1186" d="M469.29,441.46l15.2-47.22,5.99,1.93-15.22,47.22Z" fill="silver"/>
        <path id="Path_1187" data-name="Path 1187" d="M469.38,441.49l15.2-47.23,5.98,1.94-15.22,47.22Z" fill="#c1c1c1"/>
        <path id="Path_1188" data-name="Path 1188" d="M469.46,441.52l15.2-47.23,5.98,1.94-15.23,47.21Z" fill="#c2c2c2"/>
        <path id="Path_1189" data-name="Path 1189" d="M469.55,441.55l15.19-47.23,5.98,1.93-15.23,47.22Z" fill="#c3c3c3"/>
        <path id="Path_1190" data-name="Path 1190" d="M469.64,441.57l15.19-47.22,5.97,1.93-15.23,47.21Z" fill="#c4c4c4"/>
        <path id="Path_1191" data-name="Path 1191" d="M469.72,441.6l15.19-47.23,5.97,1.93-15.24,47.22Z" fill="#c4c4c4"/>
        <path id="Path_1192" data-name="Path 1192" d="M469.81,441.63l15.18-47.23,5.97,1.93-15.24,47.21Z" fill="#c5c5c5"/>
        <path id="Path_1193" data-name="Path 1193" d="M469.89,441.66l15.19-47.23,5.96,1.93L475.8,443.57Z" fill="#c6c6c6"/>
        <path id="Path_1194" data-name="Path 1194" d="M469.98,441.68l15.18-47.23,5.96,1.93-15.25,47.21Z" fill="#c7c7c7"/>
        <path id="Path_1195" data-name="Path 1195" d="M470.07,441.71l15.18-47.23,5.95,1.93-15.25,47.21Z" fill="#c8c8c8"/>
        <path id="Path_1196" data-name="Path 1196" d="M470.15,441.74l15.18-47.23,5.95,1.92-15.26,47.21Z" fill="#c9c9c9"/>
        <path id="Path_1197" data-name="Path 1197" d="M470.24,441.77l15.17-47.23,5.95,1.92L476.1,443.67Z" fill="#cacaca"/>
        <path id="Path_1198" data-name="Path 1198" d="M470.32,441.8l15.18-47.24,5.94,1.93-15.26,47.2Z" fill="#cbcbcb"/>
        <path id="Path_1199" data-name="Path 1199" d="M470.41,441.82l15.17-47.23,5.94,1.92-15.27,47.21Z" fill="#ccc"/>
        <path id="Path_1200" data-name="Path 1200" d="M470.5,441.85l15.16-47.23,5.94,1.92-15.27,47.2Z" fill="#cdcdcd"/>
        <path id="Path_1201" data-name="Path 1201" d="M470.58,441.88l15.17-47.24,5.93,1.92-15.27,47.21Z" fill="#cecece"/>
        <path id="Path_1202" data-name="Path 1202" d="M470.67,441.91l15.16-47.24,5.93,1.92-15.28,47.2Z" fill="#cfcfcf"/>
        <path id="Path_1203" data-name="Path 1203" d="M470.75,441.94l15.16-47.24,5.93,1.91-15.28,47.2Z" fill="#d0d0d0"/>
        <path id="Path_1204" data-name="Path 1204" d="M470.84,441.96,486,394.72l5.92,1.92-15.29,47.2Z" fill="#d1d1d1"/>
        <path id="Path_1205" data-name="Path 1205" d="M470.93,441.99l15.15-47.24,5.92,1.92-15.29,47.2Z" fill="#d2d2d2"/>
        <path id="Path_1206" data-name="Path 1206" d="M471.01,442.02l15.15-47.24,5.92,1.91-15.29,47.2Z" fill="#d3d3d3"/>
        <path id="Path_1207" data-name="Path 1207" d="M471.1,442.05l15.15-47.24,5.91,1.91-15.3,47.19Z" fill="#d4d4d4"/>
        <path id="Path_1208" data-name="Path 1208" d="M471.18,442.07l15.15-47.24,5.91,1.91-15.3,47.2Z" fill="#d5d5d5"/>
        <path id="Path_1209" data-name="Path 1209" d="M471.27,442.1l15.15-47.24,5.9,1.91-15.3,47.19Z" fill="#d6d6d6"/>
        <path id="Path_1210" data-name="Path 1210" d="M471.36,442.13l15.14-47.24,5.89,1.91-15.3,47.19Z" fill="#d7d7d7"/>
        <path id="Path_1211" data-name="Path 1211" d="M471.44,442.16l15.14-47.25,5.9,1.91-15.31,47.19Z" fill="#d8d8d8"/>
        <path id="Path_1212" data-name="Path 1212" d="M471.53,442.19l15.14-47.25,5.89,1.91-15.31,47.19Z" fill="#d9d9d9"/>
        <path id="Path_1213" data-name="Path 1213" d="M471.61,442.21l15.14-47.24,5.88,1.9-15.31,47.19Z" fill="#dadada"/>
        <path id="Path_1214" data-name="Path 1214" d="M471.7,442.24,486.83,395l5.88,1.9L477.4,444.09Z" fill="#dbdbdb"/>
        <path id="Path_1215" data-name="Path 1215" d="M471.79,442.27l15.13-47.25,5.88,1.91-15.32,47.18Z" fill="#dcdcdc"/>
        <path id="Path_1216" data-name="Path 1216" d="M471.87,442.3,487,395.05l5.88,1.9-15.33,47.19Z" fill="#ddd"/>
        <path id="Path_1217" data-name="Path 1217" d="M471.96,442.32l15.12-47.24,5.87,1.9-15.32,47.18Z" fill="#dedede"/>
        <path id="Path_1218" data-name="Path 1218" d="M472.04,442.35l15.13-47.25,5.87,1.9L477.7,444.19Z" fill="#dfdfdf"/>
        <path id="Path_1219" data-name="Path 1219" d="M472.13,442.38l15.12-47.25,5.87,1.9-15.34,47.18Z" fill="#e0e0e0"/>
        <path id="Path_1220" data-name="Path 1220" d="M472.22,442.41l15.11-47.25,5.86,1.89-15.33,47.19Z" fill="#e1e1e1"/>
        <path id="Path_1221" data-name="Path 1221" d="M472.3,442.44l15.12-47.26,5.85,1.9-15.34,47.18Z" fill="#e2e2e2"/>
        <path id="Path_1222" data-name="Path 1222" d="M472.39,442.46l15.11-47.25,5.86,1.9-15.35,47.18Z" fill="#e3e3e3"/>
        <path id="Path_1223" data-name="Path 1223" d="M472.47,442.49l15.11-47.25,5.86,1.89-15.35,47.18Z" fill="#e4e4e4"/>
        <path id="Path_1224" data-name="Path 1224" d="M472.56,442.52l15.11-47.26,5.84,1.9-15.35,47.17Z" fill="#e5e5e5"/>
        <path id="Path_1225" data-name="Path 1225" d="M472.65,442.55l15.1-47.26,5.84,1.89-15.35,47.18Z" fill="#e6e6e6"/>
        <path id="Path_1226" data-name="Path 1226" d="M472.73,442.57l15.11-47.25,5.83,1.89-15.36,47.17Z" fill="#e7e7e7"/>
        <path id="Path_1227" data-name="Path 1227" d="M472.82,442.6l15.1-47.25,5.83,1.89-15.36,47.17Z" fill="#e8e8e8"/>
        <path id="Path_1228" data-name="Path 1228" d="M502.89,400.19l4.4,1.43-15.28,47.2-3.82-1.24Z" fill="#5b5b5b"/>
        <path id="Path_1229" data-name="Path 1229" d="M502.83,400.17l4.43,1.44-15.28,47.2-3.86-1.25Z" fill="#5c5c5c"/>
        <path id="Path_1230" data-name="Path 1230" d="M502.76,400.15l4.47,1.45-15.28,47.2-3.9-1.26Z" fill="#5d5d5d"/>
        <path id="Path_1231" data-name="Path 1231" d="M502.7,400.13l4.5,1.46-15.27,47.2-3.95-1.28Z" fill="#5e5e5e"/>
        <path id="Path_1232" data-name="Path 1232" d="M502.63,400.11l4.54,1.47-15.27,47.2-3.99-1.29Z" fill="#5f5f5f"/>
        <path id="Path_1233" data-name="Path 1233" d="M502.57,400.09l4.57,1.48-15.27,47.21-4.03-1.31Z" fill="#606060"/>
        <path id="Path_1234" data-name="Path 1234" d="M502.5,400.07l4.61,1.49-15.26,47.21-4.08-1.32Z" fill="#616161"/>
        <path id="Path_1235" data-name="Path 1235" d="M502.44,400.05l4.63,1.5-15.25,47.21-4.12-1.33Z" fill="#626262"/>
        <path id="Path_1236" data-name="Path 1236" d="M502.38,400.03l4.66,1.51-15.25,47.21-4.16-1.35Z" fill="#636363"/>
        <path id="Path_1237" data-name="Path 1237" d="M502.31,400.01l4.7,1.52-15.25,47.21-4.19-1.36Z" fill="#646464"/>
        <path id="Path_1238" data-name="Path 1238" d="M502.25,399.99l4.73,1.53-15.24,47.21-4.24-1.37Z" fill="#656565"/>
        <path id="Path_1239" data-name="Path 1239" d="M502.18,399.96l4.77,1.55-15.24,47.21-4.28-1.39Z" fill="#666"/>
        <path id="Path_1240" data-name="Path 1240" d="M502.12,399.94l4.8,1.56-15.24,47.21-4.32-1.4Z" fill="#676767"/>
        <path id="Path_1241" data-name="Path 1241" d="M502.05,399.92l4.84,1.57L491.66,448.7l-4.37-1.41Z" fill="#686868"/>
        <path id="Path_1242" data-name="Path 1242" d="M501.99,399.9l4.87,1.58L491.63,448.7l-4.41-1.43Z" fill="#696969"/>
        <path id="Path_1243" data-name="Path 1243" d="M501.92,399.88l4.9,1.59L491.6,448.69l-4.45-1.44Z" fill="#6a6a6a"/>
        <path id="Path_1244" data-name="Path 1244" d="M501.86,399.86l4.93,1.6-15.21,47.22-4.5-1.46Z" fill="#6b6b6b"/>
        <path id="Path_1245" data-name="Path 1245" d="M501.79,399.84l4.97,1.61-15.21,47.22-4.54-1.47Z" fill="#6c6c6c"/>
        <path id="Path_1246" data-name="Path 1246" d="M501.73,399.82l5,1.62-15.21,47.22-4.58-1.48Z" fill="#6d6d6d"/>
        <path id="Path_1247" data-name="Path 1247" d="M501.66,399.8l5.04,1.63-15.21,47.22-4.62-1.5Z" fill="#6e6e6e"/>
        <path id="Path_1248" data-name="Path 1248" d="M501.6,399.77l5.07,1.65-15.2,47.22-4.67-1.51Z" fill="#6f6f6f"/>
        <path id="Path_1249" data-name="Path 1249" d="M501.53,399.75l5.11,1.66-15.2,47.22-4.71-1.52Z" fill="#707070"/>
        <path id="Path_1250" data-name="Path 1250" d="M501.47,399.73l5.14,1.67-15.2,47.23-4.75-1.54Z" fill="#717171"/>
        <path id="Path_1251" data-name="Path 1251" d="M501.4,399.71l5.17,1.68-15.18,47.23-4.8-1.56Z" fill="#727272"/>
        <path id="Path_1252" data-name="Path 1252" d="M501.34,399.69l5.2,1.69-15.18,47.23-4.84-1.57Z" fill="#737373"/>
        <path id="Path_1253" data-name="Path 1253" d="M501.27,399.67l5.24,1.7L491.33,448.6l-4.88-1.58Z" fill="#747474"/>
        <path id="Path_1254" data-name="Path 1254" d="M501.21,399.65l5.27,1.71-15.17,47.23L486.38,447Z" fill="#757575"/>
        <path id="Path_1255" data-name="Path 1255" d="M501.14,399.63l5.31,1.72-15.17,47.23-4.97-1.6Z" fill="#767676"/>
        <path id="Path_1256" data-name="Path 1256" d="M501.08,399.61l5.34,1.72-15.17,47.24-5-1.62Z" fill="#777"/>
        <path id="Path_1257" data-name="Path 1257" d="M501.01,399.59l5.38,1.73-15.17,47.24-5.04-1.63Z" fill="#787878"/>
        <path id="Path_1258" data-name="Path 1258" d="M500.95,399.56l5.41,1.75L491.2,448.56l-5.09-1.65Z" fill="#797979"/>
        <path id="Path_1259" data-name="Path 1259" d="M500.88,399.54l5.44,1.77-15.15,47.24-5.13-1.67Z" fill="#7a7a7a"/>
        <path id="Path_1260" data-name="Path 1260" d="M500.82,399.52l5.47,1.78-15.15,47.24-5.17-1.68Z" fill="#7b7b7b"/>
        <path id="Path_1261" data-name="Path 1261" d="M500.75,399.5l5.51,1.79-15.14,47.24-5.22-1.69Z" fill="#7c7c7c"/>
        <path id="Path_1262" data-name="Path 1262" d="M500.69,399.48l5.54,1.79-15.14,47.25-5.26-1.7Z" fill="#7d7d7d"/>
        <path id="Path_1263" data-name="Path 1263" d="M500.63,399.46l5.57,1.8-15.14,47.25-5.3-1.71Z" fill="#7e7e7e"/>
        <path id="Path_1264" data-name="Path 1264" d="M500.56,399.44l5.61,1.81L491.03,448.5l-5.34-1.73Z" fill="#7f7f7f"/>
        <path id="Path_1265" data-name="Path 1265" d="M500.5,399.42l5.64,1.82L491.01,448.5l-5.39-1.75Z" fill="gray"/>
        <path id="Path_1266" data-name="Path 1266" d="M500.43,399.4l5.68,1.83-15.13,47.26-5.43-1.76Z" fill="#818181"/>
        <path id="Path_1267" data-name="Path 1267" d="M500.37,399.38l5.7,1.84-15.12,47.26-5.47-1.78Z" fill="#828282"/>
        <path id="Path_1268" data-name="Path 1268" d="M500.3,399.36l5.74,1.85-15.11,47.26-5.52-1.79Z" fill="#838383"/>
        <path id="Path_1269" data-name="Path 1269" d="M500.24,399.33l5.77,1.87L490.9,448.46l-5.56-1.8Z" fill="#848484"/>
        <path id="Path_1270" data-name="Path 1270" d="M500.17,399.31l5.81,1.88-15.11,47.26-5.6-1.81Z" fill="#858585"/>
        <path id="Path_1271" data-name="Path 1271" d="M500.11,399.29l5.84,1.89-15.1,47.26-5.65-1.82Z" fill="#868686"/>
        <path id="Path_1272" data-name="Path 1272" d="M500.04,399.27l5.88,1.9-15.1,47.26-5.69-1.84Z" fill="#878787"/>
        <path id="Path_1273" data-name="Path 1273" d="M499.98,399.25l5.91,1.91-15.1,47.27-5.73-1.86Z" fill="#888"/>
        <path id="Path_1274" data-name="Path 1274" d="M499.91,399.23l5.95,1.92-15.1,47.27-5.77-1.87Z" fill="#898989"/>
        <path id="Path_1275" data-name="Path 1275" d="M499.85,399.21l5.98,1.93-15.09,47.27-5.81-1.89Z" fill="#8a8a8a"/>
        <path id="Path_1276" data-name="Path 1276" d="M499.78,399.19l6.02,1.94L490.71,448.4l-5.85-1.9Z" fill="#8b8b8b"/>
        <path id="Path_1277" data-name="Path 1277" d="M499.72,399.17l6.04,1.95-15.08,47.27-5.89-1.91Z" fill="#8c8c8c"/>
        <path id="Path_1278" data-name="Path 1278" d="M499.65,399.14l6.08,1.97-15.08,47.27-5.93-1.92Z" fill="#8d8d8d"/>
        <path id="Path_1279" data-name="Path 1279" d="M499.59,399.12l6.11,1.98-15.07,47.27-5.98-1.93Z" fill="#8e8e8e"/>
        <path id="Path_1280" data-name="Path 1280" d="M499.52,399.1l6.15,1.99L490.6,448.36l-6.02-1.95Z" fill="#8f8f8f"/>
        <path id="Path_1281" data-name="Path 1281" d="M499.46,399.08l6.18,2-15.07,47.28-6.06-1.97Z" fill="#909090"/>
        <path id="Path_1282" data-name="Path 1282" d="M499.39,399.06l6.22,2.01-15.06,47.28-6.11-1.98Z" fill="#919191"/>
        <path id="Path_1283" data-name="Path 1283" d="M499.33,399.04l6.25,2.02-15.06,47.28-6.15-1.99Z" fill="#929292"/>
        <path id="Path_1284" data-name="Path 1284" d="M499.26,399.02l6.29,2.03-15.06,47.28-6.19-2.01Z" fill="#939393"/>
        <path id="Path_1285" data-name="Path 1285" d="M499.2,399l6.31,2.04-15.04,47.28-6.24-2.02Z" fill="#949494"/>
        <path id="Path_1286" data-name="Path 1286" d="M499.13,398.98l6.35,2.05-15.04,47.28-6.28-2.03Z" fill="#959595"/>
        <path id="Path_1287" data-name="Path 1287" d="M499.07,398.96l6.38,2.06L490.41,448.3l-6.32-2.05Z" fill="#969696"/>
        <path id="Path_1288" data-name="Path 1288" d="M499,398.94l6.42,2.07-15.04,47.28-6.36-2.06Z" fill="#979797"/>
        <path id="Path_1289" data-name="Path 1289" d="M498.94,398.91l6.45,2.09-15.03,47.28-6.41-2.07Z" fill="#989898"/>
        <path id="Path_1290" data-name="Path 1290" d="M498.88,398.89l6.48,2.1-15.03,47.29-6.45-2.09Z" fill="#999"/>
        <path id="Path_1291" data-name="Path 1291" d="M498.81,398.87l6.52,2.11L490.3,448.27l-6.49-2.1Z" fill="#9a9a9a"/>
        <path id="Path_1292" data-name="Path 1292" d="M498.75,398.85l6.55,2.12-15.02,47.29-6.54-2.12Z" fill="#9b9b9b"/>
        <path id="Path_1293" data-name="Path 1293" d="M498.68,398.83l6.58,2.13-15.01,47.29-6.58-2.13Z" fill="#9c9c9c"/>
        <path id="Path_1294" data-name="Path 1294" d="M498.62,398.81l6.61,2.14-15.01,47.29-6.62-2.14Z" fill="#9d9d9d"/>
        <path id="Path_1295" data-name="Path 1295" d="M498.55,398.79l6.65,2.15-15.01,47.29-6.65-2.16Z" fill="#9e9e9e"/>
        <path id="Path_1296" data-name="Path 1296" d="M498.49,398.77l6.68,2.16-15,47.29-6.71-2.17Z" fill="#9f9f9f"/>
        <path id="Path_1297" data-name="Path 1297" d="M498.42,398.75l6.72,2.17-15,47.29-6.74-2.18Z" fill="#a0a0a0"/>
        <path id="Path_1298" data-name="Path 1298" d="M498.36,398.73l6.75,2.18-15,47.29-6.78-2.19Z" fill="#a1a1a1"/>
        <path id="Path_1299" data-name="Path 1299" d="M498.29,398.7l6.79,2.2-14.99,47.3-6.83-2.22Z" fill="#a2a2a2"/>
        <path id="Path_1300" data-name="Path 1300" d="M498.23,398.68l6.82,2.21-14.99,47.3-6.87-2.23Z" fill="#a3a3a3"/>
        <path id="Path_1301" data-name="Path 1301" d="M498.16,398.66l6.85,2.22-14.98,47.3-6.91-2.24Z" fill="#a4a4a4"/>
        <path id="Path_1302" data-name="Path 1302" d="M498.1,398.64l6.88,2.23L490,448.17l-6.95-2.25Z" fill="#a5a5a5"/>
        <path id="Path_1303" data-name="Path 1303" d="M498.03,398.62l6.92,2.24-14.97,47.3-7-2.27Z" fill="#a6a6a6"/>
        <path id="Path_1304" data-name="Path 1304" d="M497.97,398.6l6.95,2.25-14.97,47.3-7.04-2.28Z" fill="#a7a7a7"/>
        <path id="Path_1305" data-name="Path 1305" d="M497.9,398.58l6.99,2.26-14.97,47.3-7.08-2.29Z" fill="#a8a8a8"/>
        <path id="Path_1306" data-name="Path 1306" d="M497.84,398.56l7.02,2.27-14.96,47.3-7.13-2.3Z" fill="#a9a9a9"/>
        <path id="Path_1307" data-name="Path 1307" d="M497.77,398.54l7.06,2.28-14.96,47.31-7.17-2.33Z" fill="#aaa"/>
        <path id="Path_1308" data-name="Path 1308" d="M497.71,398.51l7.09,2.3-14.96,47.31-7.21-2.34Z" fill="#ababab"/>
        <path id="Path_1309" data-name="Path 1309" d="M497.64,398.49l7.12,2.31-14.94,47.31-7.26-2.35Z" fill="#acacac"/>
        <path id="Path_1310" data-name="Path 1310" d="M497.58,398.47l7.15,2.32L489.79,448.1l-7.3-2.36Z" fill="#adadad"/>
        <path id="Path_1311" data-name="Path 1311" d="M497.51,398.45l7.19,2.33-14.94,47.31-7.34-2.38Z" fill="#aeaeae"/>
        <path id="Path_1312" data-name="Path 1312" d="M497.45,398.43l7.22,2.34-14.93,47.31-7.39-2.39Z" fill="#afafaf"/>
        <path id="Path_1313" data-name="Path 1313" d="M497.38,398.41l7.26,2.35-14.93,47.31-7.43-2.4Z" fill="#b0b0b0"/>
        <path id="Path_1314" data-name="Path 1314" d="M497.32,398.39l7.29,2.36-14.93,47.31-7.47-2.41Z" fill="#b1b1b1"/>
        <path id="Path_1315" data-name="Path 1315" d="M497.25,398.37l7.33,2.37-14.93,47.32-7.51-2.44Z" fill="#b2b2b2"/>
        <path id="Path_1316" data-name="Path 1316" d="M497.19,398.35l7.36,2.38-14.92,47.32-7.56-2.45Z" fill="#b3b3b3"/>
        <path id="Path_1317" data-name="Path 1317" d="M497.13,398.33l7.39,2.39L489.6,448.04l-7.59-2.46Z" fill="#b4b4b4"/>
        <path id="Path_1318" data-name="Path 1318" d="M497.06,398.31l7.42,2.4-14.91,47.32-7.63-2.47Z" fill="#b5b5b5"/>
        <path id="Path_1319" data-name="Path 1319" d="M497,398.28l7.45,2.42-14.9,47.32-7.68-2.49Z" fill="#b6b6b6"/>
        <path id="Path_1320" data-name="Path 1320" d="M496.93,398.26l7.49,2.43-14.9,47.32-7.72-2.5Z" fill="#b7b7b7"/>
        <path id="Path_1321" data-name="Path 1321" d="M496.87,398.24l7.52,2.44L489.49,448l-7.76-2.51Z" fill="#b8b8b8"/>
        <path id="Path_1322" data-name="Path 1322" d="M496.8,398.22l7.56,2.45L489.46,448l-7.8-2.53Z" fill="#b9b9b9"/>
        <path id="Path_1323" data-name="Path 1323" d="M496.74,398.2l7.59,2.46-14.89,47.33-7.85-2.55Z" fill="#bababa"/>
        <path id="Path_1324" data-name="Path 1324" d="M496.67,398.18l7.63,2.47-14.89,47.33-7.89-2.56Z" fill="#bbb"/>
        <path id="Path_1325" data-name="Path 1325" d="M496.61,398.16l7.66,2.48-14.89,47.33-7.93-2.57Z" fill="#bcbcbc"/>
        <path id="Path_1326" data-name="Path 1326" d="M496.54,398.14l7.7,2.49-14.88,47.33-7.98-2.58Z" fill="#bdbdbd"/>
        <path id="Path_1327" data-name="Path 1327" d="M496.48,398.12l7.72,2.5-14.87,47.33-8.02-2.6Z" fill="#bebebe"/>
        <path id="Path_1328" data-name="Path 1328" d="M496.41,398.1l7.76,2.51L489.3,447.94l-8.06-2.61Z" fill="#bfbfbf"/>
        <path id="Path_1329" data-name="Path 1329" d="M496.35,398.07l7.79,2.53-14.87,47.33-8.1-2.62Z" fill="silver"/>
        <path id="Path_1330" data-name="Path 1330" d="M496.28,398.05l7.83,2.54-14.86,47.34-8.15-2.64Z" fill="#c1c1c1"/>
        <path id="Path_1331" data-name="Path 1331" d="M496.22,398.03l7.86,2.55-14.86,47.34-8.19-2.66Z" fill="#c2c2c2"/>
        <path id="Path_1332" data-name="Path 1332" d="M496.15,398.01l7.9,2.56-14.86,47.34-8.23-2.67Z" fill="#c3c3c3"/>
        <path id="Path_1333" data-name="Path 1333" d="M496.09,397.99l7.93,2.57L489.17,447.9l-8.28-2.68Z" fill="#c4c4c4"/>
        <path id="Path_1334" data-name="Path 1334" d="M496.02,397.97l7.97,2.58-14.85,47.34-8.32-2.69Z" fill="#c5c5c5"/>
        <path id="Path_1335" data-name="Path 1335" d="M495.96,397.95l7.99,2.59-14.84,47.34-8.36-2.71Z" fill="#c6c6c6"/>
        <path id="Path_1336" data-name="Path 1336" d="M495.89,397.93l8.03,2.6-14.84,47.34-8.39-2.72Z" fill="#c7c7c7"/>
        <path id="Path_1337" data-name="Path 1337" d="M495.83,397.91l8.06,2.61-14.83,47.34-8.44-2.73Z" fill="#c8c8c8"/>
        <path id="Path_1338" data-name="Path 1338" d="M495.76,397.89l8.1,2.62-14.83,47.35-8.48-2.75Z" fill="#c9c9c9"/>
        <path id="Path_1339" data-name="Path 1339" d="M495.7,397.87l8.13,2.63L489,447.85l-8.52-2.77Z" fill="#cacaca"/>
        <path id="Path_1340" data-name="Path 1340" d="M495.63,397.84l8.17,2.65-14.82,47.35-8.57-2.78Z" fill="#cbcbcb"/>
        <path id="Path_1341" data-name="Path 1341" d="M495.57,397.82l8.2,2.66-14.82,47.35-8.61-2.79Z" fill="#ccc"/>
        <path id="Path_1342" data-name="Path 1342" d="M495.5,397.8l8.24,2.67-14.82,47.35-8.65-2.8Z" fill="#cdcdcd"/>
        <path id="Path_1343" data-name="Path 1343" d="M495.44,397.78l8.26,2.68-14.81,47.35-8.69-2.82Z" fill="#cecece"/>
        <path id="Path_1344" data-name="Path 1344" d="M495.38,397.76l8.29,2.69-14.8,47.35-8.74-2.83Z" fill="#cfcfcf"/>
        <path id="Path_1345" data-name="Path 1345" d="M495.31,397.74l8.33,2.7-14.8,47.35-8.78-2.84Z" fill="#d0d0d0"/>
        <path id="Path_1346" data-name="Path 1346" d="M495.25,397.72l8.36,2.71-14.8,47.35-8.82-2.85Z" fill="#d1d1d1"/>
        <path id="Path_1347" data-name="Path 1347" d="M495.18,397.7l8.4,2.72-14.79,47.36-8.87-2.88Z" fill="#d2d2d2"/>
        <path id="Path_1348" data-name="Path 1348" d="M495.12,397.68l8.43,2.73-14.79,47.36-8.91-2.89Z" fill="#d3d3d3"/>
        <path id="Path_1349" data-name="Path 1349" d="M495.05,397.65l8.47,2.75-14.79,47.36-8.95-2.9Z" fill="#d4d4d4"/>
        <path id="Path_1350" data-name="Path 1350" d="M494.99,397.63l8.5,2.76-14.78,47.36-9-2.91Z" fill="#d5d5d5"/>
        <path id="Path_1351" data-name="Path 1351" d="M494.92,397.61l8.53,2.77-14.77,47.36-9.04-2.93Z" fill="#d6d6d6"/>
        <path id="Path_1352" data-name="Path 1352" d="M494.86,397.59l8.56,2.78-14.77,47.36-9.08-2.94Z" fill="#d7d7d7"/>
        <path id="Path_1353" data-name="Path 1353" d="M494.79,397.57l8.6,2.79-14.76,47.36-9.13-2.95Z" fill="#d8d8d8"/>
        <path id="Path_1354" data-name="Path 1354" d="M494.73,397.55l8.63,2.8L488.6,447.71l-9.17-2.96Z" fill="#d9d9d9"/>
        <path id="Path_1355" data-name="Path 1355" d="M494.66,397.53l8.67,2.81L488.57,447.7l-9.21-2.98Z" fill="#dadada"/>
        <path id="Path_1356" data-name="Path 1356" d="M494.6,397.51l8.7,2.82L488.54,447.7l-9.24-3Z" fill="#dbdbdb"/>
        <path id="Path_1357" data-name="Path 1357" d="M494.53,397.49l8.74,2.83-14.75,47.37-9.29-3.01Z" fill="#dcdcdc"/>
        <path id="Path_1358" data-name="Path 1358" d="M494.47,397.47l8.77,2.84-14.75,47.37-9.33-3.02Z" fill="#ddd"/>
        <path id="Path_1359" data-name="Path 1359" d="M494.4,397.44l8.8,2.86-14.74,47.37-9.37-3.04Z" fill="#dedede"/>
        <path id="Path_1360" data-name="Path 1360" d="M494.34,397.42l8.83,2.87-14.73,47.37-9.42-3.05Z" fill="#dfdfdf"/>
        <path id="Path_1361" data-name="Path 1361" d="M494.27,397.4l8.87,2.87-14.73,47.38-9.46-3.06Z" fill="#e0e0e0"/>
        <path id="Path_1362" data-name="Path 1362" d="M494.21,397.38l8.9,2.88-14.73,47.38-9.5-3.07Z" fill="#e1e1e1"/>
        <path id="Path_1363" data-name="Path 1363" d="M494.14,397.36l8.94,2.89-14.73,47.38-9.54-3.09Z" fill="#e2e2e2"/>
        <path id="Path_1364" data-name="Path 1364" d="M494.08,397.34l8.97,2.91-14.72,47.38-9.59-3.11Z" fill="#e3e3e3"/>
        <path id="Path_1365" data-name="Path 1365" d="M494.01,397.32l9.01,2.92L488.3,447.62l-9.63-3.12Z" fill="#e4e4e4"/>
        <path id="Path_1366" data-name="Path 1366" d="M493.95,397.3l9.04,2.93-14.72,47.38-9.67-3.13Z" fill="#e5e5e5"/>
        <path id="Path_1367" data-name="Path 1367" d="M493.88,397.28l9.08,2.93L488.25,447.6l-9.72-3.15Z" fill="#e6e6e6"/>
        <path id="Path_1368" data-name="Path 1368" d="M493.82,397.26l9.1,2.94-14.7,47.39-9.76-3.16Z" fill="#e7e7e7"/>
        <path id="Path_1369" data-name="Path 1369" d="M478.39,444.41l15.36-47.17,9.14,2.95-14.7,47.39Z" fill="#e8e8e8"/>
      </g>
    </g>
  </g>
</svg>
