<?xml version="1.0" encoding="UTF-8" standalone="no"?>
<svg
   xmlns:dc="http://purl.org/dc/elements/1.1/"
   xmlns:cc="http://creativecommons.org/ns#"
   xmlns:rdf="http://www.w3.org/1999/02/22-rdf-syntax-ns#"
   xmlns:svg="http://www.w3.org/2000/svg"
   xmlns="http://www.w3.org/2000/svg"
   xmlns:sodipodi="http://sodipodi.sourceforge.net/DTD/sodipodi-0.dtd"
   xmlns:inkscape="http://www.inkscape.org/namespaces/inkscape"
   sodipodi:docname="handle.svg"
   inkscape:version="1.0 (4035a4f, 2020-05-01)"
   id="svg1377"
   version="1.1"
   viewBox="0 0 42 140"
   height="140mm"
   width="42mm">
  <defs
     id="defs1371">
    <linearGradient
       x1="472.90002"
       gradientUnits="userSpaceOnUse"
       y2="102.20002"
       x2="599"
       y1="102.20002"
       id="linear-gradient-4"
       gradientTransform="matrix(0.30387681,0,0,0.30490165,-141.56077,-10.936898)">
      <stop
         id="stop57"
         stop-color="#929496"
         offset="0" />
      <stop
         id="stop59"
         stop-color="#b0b1b3"
         offset="0.12" />
      <stop
         id="stop61"
         stop-color="#cccdce"
         offset="0.25" />
      <stop
         id="stop63"
         stop-color="#e3e3e4"
         offset="0.4" />
      <stop
         id="stop65"
         stop-color="#f3f3f3"
         offset="0.56" />
      <stop
         id="stop67"
         stop-color="#fcfcfc"
         offset="0.75" />
      <stop
         id="stop69"
         stop-color="#fff"
         offset="1" />
    </linearGradient>
    <linearGradient
       gradientTransform="matrix(0.38569262,0,0,0.24024781,-39.158296,11.057425)"
       gradientUnits="userSpaceOnUse"
       y2="618.11536"
       x2="-88.115982"
       y1="618.11536"
       x1="-187.87646"
       id="linear-gradient-5">
      <stop
         id="stop72"
         stop-color="#fff"
         offset="0" />
      <stop
         id="stop74"
         stop-color="#efedec"
         offset="0.36" />
      <stop
         id="stop76"
         stop-color="#d3cecb"
         offset="0.66" />
      <stop
         id="stop78"
         stop-color="#d3cecb"
         offset="1" />
    </linearGradient>
  </defs>
  <sodipodi:namedview
     inkscape:window-maximized="0"
     inkscape:window-y="23"
     inkscape:window-x="0"
     inkscape:window-height="943"
     inkscape:window-width="1252"
     showgrid="false"
     inkscape:document-rotation="0"
     inkscape:current-layer="layer1"
     inkscape:document-units="mm"
     inkscape:cy="560"
     inkscape:cx="-12.857143"
     inkscape:zoom="0.35"
     inkscape:pageshadow="2"
     inkscape:pageopacity="0.0"
     borderopacity="1.0"
     bordercolor="#666666"
     pagecolor="#ffffff"
     id="base" />
  <metadata
     id="metadata1374">
    <rdf:RDF>
      <cc:Work
         rdf:about="">
        <dc:format>image/svg+xml</dc:format>
        <dc:type
           rdf:resource="http://purl.org/dc/dcmitype/StillImage" />
        <dc:title></dc:title>
      </cc:Work>
    </rdf:RDF>
  </metadata>
  <g
     id="layer1"
     inkscape:groupmode="layer"
     inkscape:label="Layer 1">
    <path
       style="isolation:isolate;stroke-width:0.30439"
       id="Path_1120"
       data-name="Path 1120"
       d="M 39.935726,20.224052 A 18.633726,18.696569 0 1 1 21.317194,1.5274823 18.633726,18.696569 0 0 1 39.935726,20.224052 Z"
       fill="#010101" />
    <path
       style="isolation:isolate;stroke-width:0.30439"
       id="Path_1121"
       data-name="Path 1121"
       d="M 39.935726,20.224052 A 18.633726,18.696569 0 1 1 21.317194,1.5274823 18.633726,18.696569 0 0 1 39.935726,20.224052 Z"
       fill="#010101" />
    <path
       style="isolation:isolate;stroke-width:0.30439"
       id="Path_1122"
       data-name="Path 1122"
       d="M 39.935726,20.224052 A 18.633726,18.696569 0 1 1 21.317194,1.5274823 18.633726,18.696569 0 0 1 39.935726,20.224052 Z"
       fill="#2d2d2d" />
    <path
       id="Path_1123"
       data-name="Path 1123"
       d="m 21.317194,39.448092 a 19.159433,19.224049 0 1 1 19.14424,-19.2088 19.159433,19.224049 0 0 1 -19.14424,19.2088 z m 0,-37.3931297 A 18.10802,18.169089 0 1 0 39.425212,20.224052 18.10802,18.169089 0 0 0 21.317194,2.0549623 Z"
       fill="url(#linear-gradient-4)"
       style="isolation:isolate;mix-blend-mode:multiply;fill:url(#linear-gradient-4);stroke-width:0.30439" />
    <rect
       style="isolation:isolate;stroke-width:0.30439"
       id="Rectangle_24"
       data-name="Rectangle 24"
       width="15.121285"
       height="8.1374264"
       transform="matrix(0.30926908,-0.95097457,0.95035854,0.31115695,0,0)"
       fill="#ffffff"
       x="-121.93356"
       y="40.769047" />
    <path
       style="isolation:isolate;stroke-width:0.30439"
       id="Path_1124"
       data-name="Path 1124"
       d="m 8.6303368,119.48783 a 1.5193841,1.5245083 0 0 1 -0.668529,-0.0396 1.4920352,1.4970671 0 0 1 -1.005832,-1.8599 L 11.9274,100.76687 16.898825,83.948495 a 58.844834,59.04329 0 0 0 2.431014,-16.205523 l 0.355536,-35.80155 a 1.4920352,1.4970671 0 0 1 2.981032,0.0305 L 22.310871,67.773475 A 61.835588,62.044133 0 0 1 19.758306,84.80223 l -4.971425,16.81838 -4.9714242,16.82142 a 1.4859576,1.4909691 0 0 1 -1.18512,1.04581 z"
       fill="#ffffff" />
    <path
       style="isolation:isolate;stroke-width:0.30439"
       id="Path_1125"
       data-name="Path 1125"
       d="m 21.20476,30.462642 a 1.4434149,1.4482828 0 0 1 1.309708,1.03057 1.5588881,1.5641455 0 0 1 0.07293,0.49394 l -0.358575,35.78326 a 61.686993,61.895035 0 0 1 -2.431014,16.598847 c -0.03647,0.134157 -0.07901,0.280509 -0.118512,0.411618 l -4.968386,16.806183 -4.7587102,16.09576 c 0,0 -0.215753,0.74396 -0.212714,0.75311 a 1.4494924,1.4543809 0 0 1 -0.911631,1.00312 v 0 a 1.5859331,1.5912817 0 0 1 -0.200558,0.0457 h -0.03039 a 1.4889964,1.4940181 0 0 1 -1.643974,-1.9056 l 4.9714252,-16.82142 4.971424,-16.818382 a 58.844834,59.04329 0 0 0 2.431015,-16.205522 l 0.355535,-35.801554 a 1.4859576,1.4909691 0 0 1 1.519385,-1.47877 z"
       fill="#fefefe" />
    <path
       style="isolation:isolate;stroke-width:0.30439"
       id="Path_1126"
       data-name="Path 1126"
       d="m 21.219953,30.465692 a 1.3917558,1.3964496 0 0 1 1.215507,1.04581 1.5373128,1.5424975 0 0 1 0.06989,0.4909 l -0.355536,35.76801 A 61.587322,61.795028 0 0 1 19.7188,84.354014 c -0.03647,0.12501 -0.08205,0.283559 -0.121551,0.408567 l -4.965347,16.790939 -4.7647882,16.12625 c 0,0.0183 -0.212714,0.73481 -0.206636,0.75311 a 1.4130272,1.4177927 0 0 1 -0.829584,1.00312 v 0 a 1.0720774,1.075693 0 0 1 -0.200559,0.0488 h -0.03039 a 1.4889964,1.4940181 0 0 1 -1.643974,-1.90565 L 11.927395,100.75773 16.89882,83.939348 A 58.844834,59.04329 0 0 0 19.329834,67.733826 L 19.68537,31.932272 a 1.4889964,1.4940181 0 0 1 1.537617,-1.47573 z"
       fill="#fdfdfd" />
    <path
       style="isolation:isolate;stroke-width:0.30439"
       id="Path_1127"
       data-name="Path 1127"
       d="m 21.235147,30.468742 a 1.3552906,1.3598614 0 0 1 1.130422,1.05801 1.6248293,1.6303091 0 0 1 0.06685,0.49089 l -0.355536,35.749722 a 61.595831,61.803566 0 0 1 -2.431015,16.568357 l -0.12155,0.411617 -4.95927,16.769592 -4.7739042,16.15979 c 0,0.0305 -0.206636,0.72872 -0.19752,0.75921 a 1.3978334,1.4025476 0 0 1 -0.756653,1.00312 v 0 a 1.6032541,1.6086611 0 0 1 -0.200559,0.0488 h -0.03039 a 1.4920352,1.4970671 0 0 1 -1.647012,-1.90565 l 4.9714242,-16.82143 4.971425,-16.818374 a 58.844834,59.04329 0 0 0 2.431014,-16.205522 l 0.355536,-35.801552 a 1.4920352,1.4970671 0 0 1 1.197275,-1.44828 1.5193841,1.5245083 0 0 1 0.349458,-0.0183 z"
       fill="#fcfcfc" />
    <path
       style="isolation:isolate;stroke-width:0.30439"
       id="Path_1128"
       data-name="Path 1128"
       d="m 21.250341,30.471792 c 0.46797,0.0335 0.872126,0.47565 1.039259,1.07326 a 1.7284513,1.7342806 0 0 1 0.06685,0.49089 L 21.997875,67.767364 A 61.343006,61.549886 0 0 1 19.56686,84.317425 l -0.118512,0.411617 -4.95623,16.769598 -4.7769442,16.17198 c 0,0.0396 -0.200558,0.71957 -0.191442,0.75921 a 1.4099884,1.4147437 0 0 1 -0.680684,1.00617 v 0 a 1.3808163,1.3854731 0 0 1 -0.200559,0.0488 h -0.03038 a 1.4920352,1.4970671 0 0 1 -1.647012,-1.90565 L 11.93652,100.75773 16.907945,83.939348 A 58.844834,59.04329 0 0 0 19.33896,67.733826 l 0.355536,-35.801554 a 1.4889964,1.4940181 0 0 1 1.215507,-1.44828 1.5591919,1.5644504 0 0 1 0.340342,-0.0122 z"
       fill="#fbfbfb" />
    <path
       style="isolation:isolate;stroke-width:0.30439"
       id="Path_1129"
       data-name="Path 1129"
       d="m 21.262496,30.471792 c 0.422389,0.0427 0.793119,0.49089 0.954173,1.0885 a 1.7281474,1.7339757 0 0 1 0.06078,0.49089 l -0.352502,35.713134 a 61.256399,61.462989 0 0 1 -2.431014,16.537863 l -0.121551,0.40857 -4.947114,16.745201 -4.7921372,16.20857 c -0.01519,0.0518 -0.194481,0.71347 -0.182326,0.76226 a 1.4221435,1.4269397 0 0 1 -0.607754,1.00922 v 0 a 1.5193841,1.5245083 0 0 1 -0.203597,0.0488 h -0.03039 a 1.4920352,1.4970671 0 0 1 -1.647013,-1.90565 l 4.9714252,-16.82142 4.971425,-16.818382 a 58.846352,59.044816 0 0 0 2.431014,-16.205522 l 0.355536,-35.801554 a 1.4829189,1.4879201 0 0 1 1.215507,-1.44828 1.571347,1.5766464 0 0 1 0.355536,-0.0122 z"
       fill="#fafafa" />
    <path
       style="isolation:isolate;stroke-width:0.30439"
       id="Path_1130"
       data-name="Path 1130"
       d="m 21.27769,30.474842 c 0.376807,0.0488 0.711071,0.50004 0.86301,1.10069 a 1.9961668,2.002899 0 0 1 0.06077,0.4909 l -0.358569,35.694833 a 61.128164,61.334322 0 0 1 -2.431015,16.522621 c -0.03039,0.106717 -0.08508,0.304903 -0.118512,0.40857 l -4.944076,16.733004 -4.8012532,16.23601 a 6.4774381,6.4992837 0 0 0 -0.17321,0.76226 1.4859576,1.4909691 0 0 1 -0.534823,1.01227 v 0 a 1.485046,1.4900544 0 0 1 -0.200558,0.0488 h -0.03039 a 1.4920352,1.4970671 0 0 1 -1.650051,-1.90565 l 4.9714242,-16.82142 4.971425,-16.818382 a 58.844834,59.04329 0 0 0 2.431014,-16.205522 l 0.355536,-35.801554 a 1.4829189,1.4879201 0 0 1 1.236779,-1.45133 1.5677005,1.5729876 0 0 1 0.352497,-0.006 z"
       fill="#f9f9f9" />
    <path
       style="isolation:isolate;stroke-width:0.30439"
       id="Path_1131"
       data-name="Path 1131"
       d="m 21.292884,30.477892 c 0.331225,0.0549 0.629025,0.51223 0.774885,1.11594 a 1.9724644,1.9791166 0 0 1 0.0547,0.48784 l -0.355535,35.673495 a 61.036393,61.242242 0 0 1 -2.431015,16.507375 c -0.03039,0.100619 -0.08812,0.304903 -0.118512,0.405522 L 14.27637,101.38582 9.4659998,117.65538 a 5.4980433,5.5165855 0 0 0 -0.167132,0.76835 1.5710431,1.5763415 0 0 1 -0.461892,1.01227 v 0 c -0.06685,0.0183 -0.133706,0.0366 -0.203598,0.0488 h -0.03039 a 1.4920352,1.4970671 0 0 1 -1.650051,-1.90565 l 4.9714252,-16.82142 4.971424,-16.818382 a 58.844834,59.04329 0 0 0 2.431015,-16.205522 l 0.355535,-35.801554 a 1.4798801,1.4848711 0 0 1 1.248934,-1.45133 1.5953533,1.6007337 0 0 1 0.361614,-0.003 z"
       fill="#f8f8f8" />
    <path
       style="isolation:isolate;stroke-width:0.30439"
       id="Path_1132"
       data-name="Path 1132"
       d="m 21.317194,30.480942 c 0.285644,0.064 0.546978,0.52138 0.683723,1.12814 a 2.1550944,2.1623625 0 0 1 0.0547,0.49089 l -0.355538,35.673491 a 61.027884,61.233704 0 0 1 -2.431015,16.49213 c -0.03039,0.09757 -0.09116,0.3049 -0.118512,0.405519 l -4.944076,16.687268 -4.8164472,16.29395 a 4.6368563,4.6524945 0 0 0 -0.158016,0.76835 1.7503305,1.7562335 0 0 1 -0.385923,1.01227 v 0 a 1.4929468,1.4979818 0 0 1 -0.200559,0.0518 h -0.03039 a 1.5193841,1.5245083 0 0 1 -0.647257,-0.0457 1.4889964,1.4940181 0 0 1 -1.005833,-1.8599 l 4.9714252,-16.82142 4.971425,-16.818382 a 58.844834,59.04329 0 0 0 2.431014,-16.205522 l 0.355536,-35.801554 a 1.4829189,1.4879201 0 0 1 1.261089,-1.45438 1.4643824,1.4693211 0 0 1 0.364652,0.003 z"
       fill="#f7f7f7" />
    <path
       style="isolation:isolate;stroke-width:0.30439"
       id="Path_1133"
       data-name="Path 1133"
       d="m 21.317194,30.483992 c 0.240062,0.0701 0.464931,0.53357 0.607753,1.14033 a 2.153575,2.160838 0 0 1 0.04862,0.49089 L 21.62107,67.755167 a 60.775363,60.980331 0 0 1 -2.431015,16.46469 c -0.02431,0.09147 -0.09116,0.3049 -0.118512,0.405519 l -4.937998,16.702514 -4.8225252,16.31834 a 4.1451837,4.1591635 0 0 0 -0.151938,0.7714 2.0511685,2.0580861 0 0 1 -0.303877,1.01532 v 0 a 1.5409593,1.5461563 0 0 1 -0.203597,0.0518 h -0.03039 a 1.5193841,1.5245083 0 0 1 -0.647258,-0.0457 1.4889964,1.4940181 0 0 1 -1.005832,-1.8599 l 4.9714252,-16.82142 4.971425,-16.818382 a 58.846352,59.044816 0 0 0 2.431014,-16.205522 l 0.355536,-35.801554 a 1.4798801,1.4848711 0 0 1 1.276283,-1.45438 1.3306766,1.3351643 0 0 1 0.343381,0.006 z"
       fill="#f6f6f6" />
    <path
       style="isolation:isolate;stroke-width:0.30439"
       id="Path_1134"
       data-name="Path 1134"
       d="m 21.335426,30.483992 c 0.19752,0.0793 0.385924,0.54882 0.507475,1.15862 a 2.3371166,2.3449986 0 0 1 0.04862,0.48785 l -0.355536,35.624705 a 60.705167,60.909898 0 0 1 -2.431014,16.46469 l -0.118512,0.402471 -4.928882,16.675072 -4.8316412,16.34883 a 3.6608041,3.6731501 0 0 0 -0.142822,0.77445 2.6771547,2.6861836 0 0 1 -0.240063,1.01532 v 0 a 1.5391361,1.5443269 0 0 1 -0.203597,0.0518 h -0.03039 a 1.4707638,1.475724 0 0 1 -0.647258,-0.0427 1.4889964,1.4940181 0 0 1 -1.005832,-1.8599 l 4.9714242,-16.82138 4.971425,-16.818376 a 58.844834,59.04329 0 0 0 2.431014,-16.205522 l 0.355536,-35.80155 a 1.4798801,1.4848711 0 0 1 1.288438,-1.45743 1.625741,1.6312239 0 0 1 0.361613,0.003 z"
       fill="#f5f5f5" />
    <path
       style="isolation:isolate;stroke-width:0.30439"
       id="Path_1135"
       data-name="Path 1135"
       d="m 21.35062,30.487042 c 0.1489,0.0854 0.303877,0.55797 0.41935,1.17082 a 2.3343817,2.3422545 0 0 1 0.04254,0.48784 L 21.456974,67.752119 A 60.695747,60.900448 0 0 1 19.02596,84.198513 c -0.02431,0.08232 -0.0942,0.323196 -0.118512,0.402471 l -4.919763,16.665926 -4.8255632,16.37017 a 3.342645,3.3539181 0 0 0 -0.133706,0.7775 3.9503985,3.9637216 0 0 1 -0.167132,1.01837 v 0 a 1.5391361,1.5443269 0 0 1 -0.203598,0.0518 h -0.03039 A 1.4889964,1.4940181 0 0 1 6.9711668,117.5822 L 11.942591,100.76077 16.914016,83.942396 A 58.845442,59.043901 0 0 0 19.34503,67.736874 l 0.355536,-35.801552 a 1.4738026,1.478773 0 0 1 1.668284,-1.45438 z"
       fill="#f4f4f4" />
    <path
       style="isolation:isolate;stroke-width:0.30439"
       id="Path_1136"
       data-name="Path 1136"
       d="m 21.365814,30.490092 c 0.103318,0.0915 0.22183,0.57016 0.328187,1.18301 a 2.5914615,2.6002013 0 0 1 0.04254,0.4909 L 21.381005,67.749071 A 60.492151,60.696163 0 0 1 18.94999,84.183268 c -0.02127,0.07623 -0.0942,0.326247 -0.118512,0.402471 l -4.919765,16.644591 -4.8468352,16.4037 a 3.0576086,3.0679205 0 0 0 -0.127628,0.7775 9.7918228,9.8248459 0 0 1 -0.09116,1.02142 v 0 a 1.5391361,1.5443269 0 0 1 -0.203597,0.0518 h -0.03039 a 1.4889964,1.4940181 0 0 1 -1.656129,-1.90255 l 4.9714242,-16.82143 4.971425,-16.818374 a 58.844834,59.04329 0 0 0 2.431014,-16.205522 l 0.355536,-35.801552 a 1.4798801,1.4848711 0 0 1 1.312748,-1.46048 1.5193841,1.5245083 0 0 1 0.367691,0.0152 z"
       fill="#f3f3f3" />
    <path
       style="isolation:isolate;stroke-width:0.30439"
       id="Path_1137"
       data-name="Path 1137"
       d="m 21.381008,30.493132 a 7.3361942,7.3609356 0 0 1 0.240063,1.19827 2.5616815,2.5703209 0 0 1 0.03646,0.48784 l -0.340337,35.569829 a 60.361788,60.565361 0 0 1 -2.431015,16.415903 l -0.118512,0.402471 -4.925843,16.629335 -4.8620282,16.43116 a 2.9536827,2.963644 0 0 0 -0.118512,0.78359 c 0,0.48785 -0.02735,0.86897 -0.01823,1.02142 v 0 a 1.6843892,1.6900699 0 0 1 -0.203598,0.0549 h -0.03343 a 1.4889964,1.4940181 0 0 1 -1.656128,-1.9026 l 4.9714242,-16.82143 4.971425,-16.818376 a 58.844225,59.042681 0 0 0 2.431014,-16.205522 l 0.355536,-35.80155 a 1.4798801,1.4848711 0 0 1 1.327942,-1.46048 1.5193841,1.5245083 0 0 1 0.373768,0.0152 z"
       fill="#f2f2f2" />
    <path
       style="isolation:isolate;stroke-width:0.30439"
       id="Path_1138"
       data-name="Path 1138"
       d="m 21.396202,30.493132 c 0,0.10672 0.05774,0.60981 0.151938,1.21961 a 3.187364,3.1981135 0 0 1 0.03343,0.48784 L 21.226034,67.752119 A 60.252999,60.456204 0 0 1 18.795019,84.15278 c -0.01823,0.06708 -0.09724,0.335391 -0.115473,0.402468 l -4.913688,16.617142 -4.8620292,16.46469 a 2.7348913,2.7441149 0 0 0 -0.112434,0.78665 4.899102,4.9156244 0 0 0 0.0547,1.02142 v 0 a 1.5376167,1.5428024 0 0 1 -0.203597,0.0518 h -0.03039 a 1.4889964,1.4940181 0 0 1 -1.659168,-1.90255 l 4.9714252,-16.82143 4.971424,-16.818376 a 58.844834,59.04329 0 0 0 2.431015,-16.205523 l 0.355535,-35.801559 a 1.4829189,1.4879201 0 0 1 1.340097,-1.46352 1.7105226,1.7162914 0 0 1 0.373769,0.009 z"
       fill="#f2f2f2" />
    <path
       style="isolation:isolate;stroke-width:0.30439"
       id="Path_1139"
       data-name="Path 1139"
       d="m 21.408357,30.496182 a 5.0747427,5.0918576 0 0 0 0.06381,1.21961 3.2138011,3.2246398 0 0 1 0.03343,0.48784 l -0.355535,35.533242 a 60.16761,60.370527 0 0 1 -2.431015,16.388463 l -0.118512,0.39942 -4.90761,16.601903 -4.8620292,16.48603 a 2.5221776,2.5306837 0 0 0 -0.103318,0.78665 2.8658622,2.8755274 0 0 0 0.127628,1.02447 v 0 a 1.5801595,1.5854886 0 0 1 -0.206636,0.0518 h -0.03039 a 1.4889964,1.4940181 0 0 1 -1.659167,-1.90256 l 4.9714242,-16.82142 4.971425,-16.81838 a 58.846352,59.044816 0 0 0 2.431014,-16.205523 l 0.355536,-35.801555 a 1.4798801,1.4848711 0 0 1 1.352252,-1.46353 1.5193841,1.5245083 0 0 1 0.367691,0.0335 z"
       fill="#f1f1f1" />
    <path
       style="isolation:isolate;stroke-width:0.30439"
       id="Path_1140"
       data-name="Path 1140"
       d="m 21.423551,30.499232 a 2.8506685,2.8602824 0 0 0 -0.02431,1.24095 3.6440909,3.6563805 0 0 1 0.02735,0.48785 l -0.355537,35.51494 a 60.148769,60.351622 0 0 1 -2.431015,16.370171 c -0.01823,0.05793 -0.103318,0.344537 -0.118512,0.39942 l -4.901533,16.586657 -4.8833002,16.51347 a 2.3760128,2.384026 0 0 0 -0.0942,0.79275 2.1879131,2.1952919 0 0 0 0.200559,1.02446 v 0 a 1.5376167,1.5428024 0 0 1 -0.203598,0.0518 h -0.03343 a 1.4889964,1.4940181 0 0 1 -1.659167,-1.90255 l 4.9714242,-16.82142 4.971425,-16.818382 a 58.846352,59.044816 0 0 0 2.431014,-16.205522 l 0.355536,-35.801554 a 1.4768413,1.481822 0 0 1 1.364407,-1.46353 1.4130272,1.4177927 0 0 1 0.382885,0.0305 z"
       fill="#f0f0f0" />
    <path
       style="isolation:isolate;stroke-width:0.30439"
       id="Path_1141"
       data-name="Path 1141"
       d="m 21.438745,30.502282 c -0.12459,0.12806 -0.185365,0.6281 -0.115474,1.25315 a 3.6693126,3.6816874 0 0 1 0.02735,0.48784 L 20.995085,67.727727 A 59.963709,60.165938 0 0 1 18.564071,84.0857 c -0.0152,0.04878 -0.10028,0.34454 -0.115473,0.396372 l -4.898494,16.574458 -4.8863392,16.55311 a 2.2216434,2.229136 0 0 0 -0.08812,0.79274 1.7503305,1.7562335 0 0 0 0.276528,1.02752 v 0 a 1.5801595,1.5854886 0 0 1 -0.206637,0.0518 h -0.03039 a 1.5193841,1.5245083 0 0 1 -0.656373,-0.0427 1.4889964,1.4940181 0 0 1 -1.005833,-1.8599 l 4.9714242,-16.82137 4.971424,-16.818382 a 58.844834,59.04329 0 0 0 2.431015,-16.205522 l 0.355535,-35.801554 a 1.4798801,1.4848711 0 0 1 1.379601,-1.46658 1.4251823,1.4299888 0 0 1 0.376808,0.0366 z"
       fill="#efefef" />
    <path
       style="isolation:isolate;stroke-width:0.30439"
       id="Path_1142"
       data-name="Path 1142"
       d="m 21.453938,30.502282 c -0.170171,0.13721 -0.267411,0.6403 -0.203597,1.26839 0.0152,0.0518 0.02127,0.42991 0.02127,0.48785 L 20.919114,67.727727 A 59.820887,60.022634 0 0 1 18.4881,84.070455 3.9045131,3.9176814 0 0 1 18.369588,84.466827 L 13.47717,101.02604 8.5786758,117.5944 a 2.1028276,2.1099194 0 0 0 -0.07901,0.79579 c 0.03646,0.48784 0.158016,0.87811 0.349459,1.03057 v 0 a 1.186639,1.190641 0 0 1 -0.203598,0.0549 h -0.03343 a 1.5193841,1.5245083 0 0 1 -0.656374,-0.0427 1.4889964,1.4940181 0 0 1 -1.005832,-1.8599 l 4.9714262,-16.82143 4.971424,-16.81838 a 58.844834,59.04329 0 0 0 2.431015,-16.205523 l 0.355536,-35.801555 a 1.4798801,1.4848711 0 0 1 1.391756,-1.46657 1.4464536,1.4513319 0 0 1 0.382884,0.0427 z"
       fill="#eeeeee" />
    <path
       style="isolation:isolate;stroke-width:0.30439"
       id="Path_1143"
       data-name="Path 1143"
       d="m 21.469132,30.505332 c -0.215752,0.14331 -0.349458,0.65249 -0.303877,1.28364 0.0152,0.0457 0.02127,0.436 0.02127,0.48479 l -0.34642,35.453965 a 59.802959,60.004645 0 0 1 -2.431014,16.324434 l -0.118512,0.396373 -4.874184,16.556166 -4.9076102,16.59579 a 2.0417483,2.0486342 0 0 0 -0.07293,0.7958 c 0.05166,0.48784 0.200558,0.88116 0.425427,1.03361 v 0 a 1.2155073,1.2196066 0 0 1 -0.206636,0.0549 h -0.03039 a 1.5193841,1.5245083 0 0 1 -0.659413,-0.0427 1.4889964,1.4940181 0 0 1 -1.005832,-1.8599 l 4.9714272,-16.82143 4.971425,-16.818374 a 58.844834,59.04329 0 0 0 2.431014,-16.205522 l 0.355536,-35.801552 a 1.4829189,1.4879201 0 0 1 1.403911,-1.46963 1.6050773,1.6104905 0 0 1 0.376807,0.0396 z"
       fill="#ededed" />
    <path
       style="isolation:isolate;stroke-width:0.30439"
       id="Path_1144"
       data-name="Path 1144"
       d="m 21.484326,30.508382 c -0.261334,0.1494 -0.431505,0.66469 -0.382885,1.29583 0,0.0396 0.0152,0.44211 0.0152,0.48784 L 20.764144,67.727727 A 59.602095,59.803104 0 0 1 18.33313,84.039964 l -0.115473,0.393324 -4.883301,16.528722 -4.9136872,16.62324 a 1.9539279,1.9605176 0 0 0 -0.06685,0.80189 1.3674457,1.3720574 0 0 0 0.498358,1.03057 v 0 a 1.5877564,1.5931111 0 0 1 -0.206637,0.0549 h -0.03039 a 1.5193841,1.5245083 0 0 1 -0.659412,-0.0427 1.4889964,1.4940181 0 0 1 -1.005833,-1.8599 L 11.921325,100.74858 16.89275,83.930202 A 58.845442,59.043901 0 0 0 19.323764,67.724679 L 19.6793,31.923122 a 1.4707638,1.475724 0 0 1 1.80199,-1.43303 z"
       fill="#ececec" />
    <path
       style="isolation:isolate;stroke-width:0.30439"
       id="Path_1145"
       data-name="Path 1145"
       d="m 21.496481,30.511432 c -0.303877,0.15855 -0.510513,0.67383 -0.471009,1.31108 0,0.0335 0.01519,0.44515 0.01519,0.48479 L 20.685126,67.727727 A 59.609085,59.810118 0 0 1 18.254112,84.024719 L 18.1356,84.421091 13.255338,100.93457 8.3325338,117.5883 a 1.8448362,1.8510579 0 0 0 -0.05774,0.80189 1.3249029,1.3293712 0 0 0 0.574327,1.03362 v 0 a 1.7287552,1.7345855 0 0 1 -0.206636,0.0549 h -0.03343 a 1.5193841,1.5245083 0 0 1 -0.659413,-0.0427 1.4889964,1.4940181 0 0 1 -1.005832,-1.8599 l 4.9714282,-16.82143 4.971425,-16.818382 a 58.846352,59.044816 0 0 0 2.431015,-16.205523 l 0.355535,-35.801553 a 1.4859576,1.4909691 0 0 1 1.43126,-1.47268 1.4646863,1.469626 0 0 1 0.392001,0.0549 z"
       fill="#ebebeb" />
    <path
       style="isolation:isolate;stroke-width:0.30439"
       id="Path_1146"
       data-name="Path 1146"
       d="m 21.511675,30.529722 c -0.349458,0.16465 -0.59256,0.68603 -0.559133,1.32327 v 0.4848 l -0.343381,35.389935 a 59.366288,59.5665 0 0 1 -2.431015,16.278698 c 0,0.02744 -0.106357,0.368933 -0.115473,0.396373 l -4.862029,16.501282 -4.9501532,16.68117 a 1.8232609,1.8294099 0 0 0 -0.05166,0.80494 1.3309805,1.3354692 0 0 0 0.647258,1.03666 v 0 a 1.5874525,1.5928062 0 0 1 -0.206636,0.0549 h -0.03039 a 1.5379206,1.5431073 0 0 1 -0.662452,-0.0427 1.4889964,1.4940181 0 0 1 -1.005832,-1.8599 l 4.9714242,-16.82142 4.971425,-16.818382 a 58.845746,59.044205 0 0 0 2.431015,-16.205522 l 0.355535,-35.801554 a 1.4646863,1.469626 0 0 1 1.823261,-1.42694 z"
       fill="#eaeaea" />
    <path
       style="isolation:isolate;stroke-width:0.30439"
       id="Path_1147"
       data-name="Path 1147"
       d="m 21.526869,30.529722 c -0.39504,0.1738 -0.674607,0.69823 -0.650297,1.33852 v 0.48479 l -0.34338,35.374695 a 59.277859,59.477775 0 0 1 -2.431015,16.266504 l -0.115473,0.393321 -4.862029,16.486038 -4.9379982,16.70861 a 1.7320979,1.7379394 0 0 0 -0.04254,0.80799 1.337058,1.3415673 0 0 0 0.720188,1.03666 v 0 a 1.7512421,1.7571482 0 0 1 -0.206636,0.0579 h -0.03343 a 1.5379206,1.5431073 0 0 1 -0.662451,-0.0427 1.4889964,1.4940181 0 0 1 -1.005832,-1.8599 L 11.9274,100.76077 16.898825,83.942396 a 58.844834,59.04329 0 0 0 2.431014,-16.205522 l 0.355536,-35.801552 a 1.4859576,1.4909691 0 0 1 1.45557,-1.47572 1.6445813,1.6501277 0 0 1 0.385924,0.0701 z"
       fill="#e9e9e9" />
    <path
       style="isolation:isolate;stroke-width:0.30439"
       id="Path_1148"
       data-name="Path 1148"
       d="m 21.542063,30.529722 a 1.3704844,1.3751064 0 0 0 -0.738421,1.35377 c 0,0 0,0.46345 0,0.48479 L 20.451145,67.736874 A 59.283632,59.483569 0 0 1 18.02013,83.988132 c 0,0 -0.112434,0.378079 -0.115473,0.393322 L 13.042628,100.84615 8.0955138,117.5822 a 1.665245,1.6708611 0 0 0 -0.03343,0.81104 1.3644069,1.3690084 0 0 0 0.793119,1.03971 v 0 a 1.6014308,1.6068317 0 0 1 -0.206636,0.0579 h -0.03343 a 1.5406555,1.5458514 0 0 1 -0.662452,-0.0427 1.4889964,1.4940181 0 0 1 -1.005832,-1.8599 l 4.9714242,-16.82138 4.971425,-16.818375 a 58.844834,59.04329 0 0 0 2.431014,-16.205523 l 0.355536,-35.80155 a 1.4889964,1.4940181 0 0 1 1.470764,-1.47573 1.3947946,1.3994986 0 0 1 0.39504,0.064 z"
       fill="#e8e8e8" />
    <path
       style="isolation:isolate;stroke-width:0.30439"
       id="Path_1149"
       data-name="Path 1149"
       d="m 21.557256,30.529722 a 1.3978334,1.4025476 0 0 0 -0.826544,1.36596 v 0.4848 L 20.378214,67.749071 A 59.079731,59.27898 0 0 1 17.9472,83.985082 l -0.115473,0.390276 -4.862029,16.464692 -4.9531922,16.76959 a 1.5923145,1.5976847 0 0 0 -0.02735,0.81104 1.3887171,1.3934006 0 0 0 0.869088,1.03972 v 0 a 1.6430619,1.6486032 0 0 1 -0.209675,0.0579 h -0.03039 a 1.5528105,1.5580475 0 0 1 -0.66549,-0.0427 1.4889964,1.4940181 0 0 1 -1.005833,-1.8599 L 11.918281,100.79431 16.889706,83.975935 A 58.846352,59.044816 0 0 0 19.32072,67.770412 l 0.355536,-35.80155 a 1.4920352,1.4970671 0 0 1 1.482919,-1.47877 1.546733,1.5519494 0 0 1 0.398078,0.0396 z"
       fill="#e7e7e7" />
    <path
       style="isolation:isolate;stroke-width:0.30439"
       id="Path_1150"
       data-name="Path 1150"
       d="m 21.569412,30.529722 a 1.4373373,1.4421848 0 0 0 -0.911631,1.37816 c 0,0 0,0.47869 0,0.48479 l -0.358575,35.335055 a 59.068184,59.267394 0 0 1 -2.431014,16.220768 c 0,0 -0.115473,0.384175 -0.115473,0.390274 L 12.89069,100.78212 7.9466138,117.56695 a 1.546733,1.5519494 0 0 0 -0.01823,0.81714 1.4312598,1.4360868 0 0 0 0.942018,1.03972 v 0 a 1.6017347,1.6071366 0 0 1 -0.206636,0.0579 h -0.03343 a 1.5525067,1.5577426 0 0 1 -0.66549,-0.0427 1.4889964,1.4940181 0 0 1 -1.005832,-1.8599 l 4.9714232,-16.82138 4.971425,-16.818382 a 58.846352,59.044816 0 0 0 2.431014,-16.205522 l 0.355536,-35.801554 a 1.4920352,1.4970671 0 0 1 1.495074,-1.47877 1.3917558,1.3964496 0 0 1 0.385924,0.0762 z"
       fill="#e6e6e6" />
    <path
       style="isolation:isolate;stroke-width:0.30439"
       id="Path_1151"
       data-name="Path 1151"
       d="m 20.581812,31.920072 -0.358575,35.807655 a 58.952104,59.150919 0 0 1 -2.431014,16.202475 l -4.971425,16.821428 -4.9653472,16.81228 a 1.4889964,1.4940181 0 0 0 1.002794,1.8599 v 0 a 1.324599,1.3290663 0 0 1 -0.240063,0.061 1.5193841,1.5245083 0 0 1 -0.668529,-0.0396 1.4920352,1.4970671 0 0 1 -1.005832,-1.8599 L 11.915245,100.76382 16.88667,83.945444 a 58.846352,59.044816 0 0 0 2.431015,-16.205522 l 0.355535,-35.80155 a 1.4889964,1.4940181 0 0 1 1.519384,-1.47877 1.5193841,1.5245083 0 0 1 0.39504,0.061 1.4889964,1.4940181 0 0 0 -1.005832,1.39949 z"
       fill="#e5e5e5" />
    <rect
       id="Rectangle_25"
       data-name="Rectangle 25"
       width="33.516453"
       height="20.877388"
       transform="matrix(0.0099659,-0.99995034,0.99994967,0.01003322,0,0)"
       fill="url(#linear-gradient-5)"
       style="isolation:isolate;fill:url(#linear-gradient-5);stroke-width:0.304403"
       x="-39.158302"
       y="11.057422" />
    <path
       style="isolation:isolate;stroke-width:0.30439"
       id="Path_1152"
       data-name="Path 1152"
       d="m 30.594553,38.405332 -18.946719,-0.18904 0.680684,-31.2768097 18.575989,0.56102 z"
       fill="#d8d7d6" />
    <path
       style="isolation:isolate;stroke-width:0.30439"
       id="Path_1153"
       data-name="Path 1153"
       d="m 25.66871,15.927982 a 4.3241672,4.3387505 0 1 1 -4.281625,-4.38143 4.3241672,4.3387505 0 0 1 4.281625,4.38143 z"
       fill="#8b807e" />
    <g
       style="isolation:isolate"
       id="Group_46"
       data-name="Group 46"
       opacity="0.7"
       transform="matrix(0.30387682,0,0,0.30490165,-140.77069,-6.1926277)">
      <path
         id="Path_1154"
         data-name="Path 1154"
         d="m 466.54,440.57 15.28,-47.2 6.1,1.98 -15.1,47.25 z"
         fill="#a0a0a0" />
      <path
         id="Path_1155"
         data-name="Path 1155"
         d="m 466.63,440.6 15.27,-47.2 6.1,1.97 -15.11,47.26 z"
         fill="#a1a1a1" />
      <path
         id="Path_1156"
         data-name="Path 1156"
         d="m 466.71,440.63 15.28,-47.2 6.09,1.97 -15.11,47.25 z"
         fill="#a2a2a2" />
      <path
         id="Path_1157"
         data-name="Path 1157"
         d="m 466.8,440.65 15.27,-47.2 6.09,1.97 -15.11,47.26 z"
         fill="#a3a3a3" />
      <path
         id="Path_1158"
         data-name="Path 1158"
         d="m 466.89,440.68 15.26,-47.2 6.09,1.97 -15.12,47.25 z"
         fill="#a4a4a4" />
      <path
         id="Path_1159"
         data-name="Path 1159"
         d="m 466.97,440.71 15.27,-47.2 6.08,1.97 -15.12,47.25 z"
         fill="#a5a5a5" />
      <path
         id="Path_1160"
         data-name="Path 1160"
         d="m 467.06,440.74 15.26,-47.21 6.08,1.97 -15.12,47.25 z"
         fill="#a6a6a6" />
      <path
         id="Path_1161"
         data-name="Path 1161"
         d="m 467.14,440.76 15.26,-47.2 6.08,1.97 -15.13,47.25 z"
         fill="#a7a7a7" />
      <path
         id="Path_1162"
         data-name="Path 1162"
         d="m 467.23,440.79 15.26,-47.2 6.07,1.96 -15.13,47.25 z"
         fill="#a8a8a8" />
      <path
         id="Path_1163"
         data-name="Path 1163"
         d="m 467.32,440.82 15.25,-47.2 6.07,1.96 -15.14,47.24 z"
         fill="#a9a9a9" />
      <path
         id="Path_1164"
         data-name="Path 1164"
         d="m 467.4,440.85 15.25,-47.21 6.07,1.97 -15.14,47.24 z"
         fill="#aaaaaa" />
      <path
         id="Path_1165"
         data-name="Path 1165"
         d="m 467.49,440.88 15.25,-47.21 6.06,1.96 -15.14,47.25 z"
         fill="#ababab" />
      <path
         id="Path_1166"
         data-name="Path 1166"
         d="m 467.57,440.9 15.25,-47.2 6.06,1.96 -15.15,47.24 z"
         fill="#acacac" />
      <path
         id="Path_1167"
         data-name="Path 1167"
         d="m 467.66,440.93 15.24,-47.21 6.06,1.96 -15.15,47.24 z"
         fill="#adadad" />
      <path
         id="Path_1168"
         data-name="Path 1168"
         d="m 467.75,440.96 15.24,-47.21 6.05,1.96 -15.15,47.24 z"
         fill="#aeaeae" />
      <path
         id="Path_1169"
         data-name="Path 1169"
         d="m 467.83,440.99 15.24,-47.21 6.05,1.95 -15.16,47.24 z"
         fill="#afafaf" />
      <path
         id="Path_1170"
         data-name="Path 1170"
         d="m 467.92,441.02 15.24,-47.22 6.04,1.96 -15.16,47.24 z"
         fill="#b0b0b0" />
      <path
         id="Path_1171"
         data-name="Path 1171"
         d="m 468,441.04 15.24,-47.21 6.04,1.96 -15.16,47.23 z"
         fill="#b1b1b1" />
      <path
         id="Path_1172"
         data-name="Path 1172"
         d="m 468.09,441.07 15.23,-47.21 6.04,1.95 -15.17,47.24 z"
         fill="#b2b2b2" />
      <path
         id="Path_1173"
         data-name="Path 1173"
         d="m 468.18,441.1 15.23,-47.22 6.03,1.96 -15.17,47.23 z"
         fill="#b3b3b3" />
      <path
         id="Path_1174"
         data-name="Path 1174"
         d="m 468.26,441.13 15.23,-47.22 6.03,1.95 -15.17,47.24 z"
         fill="#b4b4b4" />
      <path
         id="Path_1175"
         data-name="Path 1175"
         d="m 468.35,441.15 15.22,-47.21 6.03,1.95 -15.18,47.23 z"
         fill="#b5b5b5" />
      <path
         id="Path_1176"
         data-name="Path 1176"
         d="m 468.43,441.18 15.23,-47.21 6.02,1.95 -15.18,47.23 z"
         fill="#b6b6b6" />
      <path
         id="Path_1177"
         data-name="Path 1177"
         d="m 468.52,441.21 15.22,-47.22 6.02,1.95 -15.19,47.23 z"
         fill="#b7b7b7" />
      <path
         id="Path_1178"
         data-name="Path 1178"
         d="m 468.61,441.24 15.21,-47.22 6.02,1.95 -15.19,47.23 z"
         fill="#b8b8b8" />
      <path
         id="Path_1179"
         data-name="Path 1179"
         d="m 468.69,441.27 15.22,-47.22 6.01,1.94 -15.19,47.23 z"
         fill="#b9b9b9" />
      <path
         id="Path_1180"
         data-name="Path 1180"
         d="m 468.78,441.29 15.21,-47.22 6.01,1.95 -15.2,47.23 z"
         fill="#bababa" />
      <path
         id="Path_1181"
         data-name="Path 1181"
         d="m 468.86,441.32 15.21,-47.22 6.01,1.95 -15.2,47.22 z"
         fill="#bbbbbb" />
      <path
         id="Path_1182"
         data-name="Path 1182"
         d="m 468.95,441.35 15.21,-47.22 6,1.94 -15.21,47.23 z"
         fill="#bcbcbc" />
      <path
         id="Path_1183"
         data-name="Path 1183"
         d="m 469.04,441.38 15.2,-47.22 6,1.94 -15.21,47.22 z"
         fill="#bdbdbd" />
      <path
         id="Path_1184"
         data-name="Path 1184"
         d="m 469.12,441.4 15.21,-47.22 5.99,1.94 -15.21,47.23 z"
         fill="#bebebe" />
      <path
         id="Path_1185"
         data-name="Path 1185"
         d="m 469.21,441.43 15.2,-47.22 5.99,1.94 -15.21,47.22 z"
         fill="#bfbfbf" />
      <path
         id="Path_1186"
         data-name="Path 1186"
         d="m 469.29,441.46 15.2,-47.22 5.99,1.93 -15.22,47.22 z"
         fill="#c0c0c0" />
      <path
         id="Path_1187"
         data-name="Path 1187"
         d="m 469.38,441.49 15.2,-47.23 5.98,1.94 -15.22,47.22 z"
         fill="#c1c1c1" />
      <path
         id="Path_1188"
         data-name="Path 1188"
         d="m 469.46,441.52 15.2,-47.23 5.98,1.94 -15.23,47.21 z"
         fill="#c2c2c2" />
      <path
         id="Path_1189"
         data-name="Path 1189"
         d="m 469.55,441.55 15.19,-47.23 5.98,1.93 -15.23,47.22 z"
         fill="#c3c3c3" />
      <path
         id="Path_1190"
         data-name="Path 1190"
         d="m 469.64,441.57 15.19,-47.22 5.97,1.93 -15.23,47.21 z"
         fill="#c4c4c4" />
      <path
         id="Path_1191"
         data-name="Path 1191"
         d="m 469.72,441.6 15.19,-47.23 5.97,1.93 -15.24,47.22 z"
         fill="#c4c4c4" />
      <path
         id="Path_1192"
         data-name="Path 1192"
         d="m 469.81,441.63 15.18,-47.23 5.97,1.93 -15.24,47.21 z"
         fill="#c5c5c5" />
      <path
         id="Path_1193"
         data-name="Path 1193"
         d="m 469.89,441.66 15.19,-47.23 5.96,1.93 -15.24,47.21 z"
         fill="#c6c6c6" />
      <path
         id="Path_1194"
         data-name="Path 1194"
         d="m 469.98,441.68 15.18,-47.23 5.96,1.93 -15.25,47.21 z"
         fill="#c7c7c7" />
      <path
         id="Path_1195"
         data-name="Path 1195"
         d="m 470.07,441.71 15.18,-47.23 5.95,1.93 -15.25,47.21 z"
         fill="#c8c8c8" />
      <path
         id="Path_1196"
         data-name="Path 1196"
         d="m 470.15,441.74 15.18,-47.23 5.95,1.92 -15.26,47.21 z"
         fill="#c9c9c9" />
      <path
         id="Path_1197"
         data-name="Path 1197"
         d="m 470.24,441.77 15.17,-47.23 5.95,1.92 -15.26,47.21 z"
         fill="#cacaca" />
      <path
         id="Path_1198"
         data-name="Path 1198"
         d="m 470.32,441.8 15.18,-47.24 5.94,1.93 -15.26,47.2 z"
         fill="#cbcbcb" />
      <path
         id="Path_1199"
         data-name="Path 1199"
         d="m 470.41,441.82 15.17,-47.23 5.94,1.92 -15.27,47.21 z"
         fill="#cccccc" />
      <path
         id="Path_1200"
         data-name="Path 1200"
         d="m 470.5,441.85 15.16,-47.23 5.94,1.92 -15.27,47.2 z"
         fill="#cdcdcd" />
      <path
         id="Path_1201"
         data-name="Path 1201"
         d="m 470.58,441.88 15.17,-47.24 5.93,1.92 -15.27,47.21 z"
         fill="#cecece" />
      <path
         id="Path_1202"
         data-name="Path 1202"
         d="m 470.67,441.91 15.16,-47.24 5.93,1.92 -15.28,47.2 z"
         fill="#cfcfcf" />
      <path
         id="Path_1203"
         data-name="Path 1203"
         d="m 470.75,441.94 15.16,-47.24 5.93,1.91 -15.28,47.2 z"
         fill="#d0d0d0" />
      <path
         id="Path_1204"
         data-name="Path 1204"
         d="m 470.84,441.96 15.16,-47.24 5.92,1.92 -15.29,47.2 z"
         fill="#d1d1d1" />
      <path
         id="Path_1205"
         data-name="Path 1205"
         d="m 470.93,441.99 15.15,-47.24 5.92,1.92 -15.29,47.2 z"
         fill="#d2d2d2" />
      <path
         id="Path_1206"
         data-name="Path 1206"
         d="m 471.01,442.02 15.15,-47.24 5.92,1.91 -15.29,47.2 z"
         fill="#d3d3d3" />
      <path
         id="Path_1207"
         data-name="Path 1207"
         d="m 471.1,442.05 15.15,-47.24 5.91,1.91 -15.3,47.19 z"
         fill="#d4d4d4" />
      <path
         id="Path_1208"
         data-name="Path 1208"
         d="m 471.18,442.07 15.15,-47.24 5.91,1.91 -15.3,47.2 z"
         fill="#d5d5d5" />
      <path
         id="Path_1209"
         data-name="Path 1209"
         d="m 471.27,442.1 15.15,-47.24 5.9,1.91 -15.3,47.19 z"
         fill="#d6d6d6" />
      <path
         id="Path_1210"
         data-name="Path 1210"
         d="m 471.36,442.13 15.14,-47.24 5.89,1.91 -15.3,47.19 z"
         fill="#d7d7d7" />
      <path
         id="Path_1211"
         data-name="Path 1211"
         d="m 471.44,442.16 15.14,-47.25 5.9,1.91 -15.31,47.19 z"
         fill="#d8d8d8" />
      <path
         id="Path_1212"
         data-name="Path 1212"
         d="m 471.53,442.19 15.14,-47.25 5.89,1.91 -15.31,47.19 z"
         fill="#d9d9d9" />
      <path
         id="Path_1213"
         data-name="Path 1213"
         d="m 471.61,442.21 15.14,-47.24 5.88,1.9 -15.31,47.19 z"
         fill="#dadada" />
      <path
         id="Path_1214"
         data-name="Path 1214"
         d="m 471.7,442.24 15.13,-47.24 5.88,1.9 -15.31,47.19 z"
         fill="#dbdbdb" />
      <path
         id="Path_1215"
         data-name="Path 1215"
         d="m 471.79,442.27 15.13,-47.25 5.88,1.91 -15.32,47.18 z"
         fill="#dcdcdc" />
      <path
         id="Path_1216"
         data-name="Path 1216"
         d="m 471.87,442.3 15.13,-47.25 5.88,1.9 -15.33,47.19 z"
         fill="#dddddd" />
      <path
         id="Path_1217"
         data-name="Path 1217"
         d="m 471.96,442.32 15.12,-47.24 5.87,1.9 -15.32,47.18 z"
         fill="#dedede" />
      <path
         id="Path_1218"
         data-name="Path 1218"
         d="m 472.04,442.35 15.13,-47.25 5.87,1.9 -15.34,47.19 z"
         fill="#dfdfdf" />
      <path
         id="Path_1219"
         data-name="Path 1219"
         d="m 472.13,442.38 15.12,-47.25 5.87,1.9 -15.34,47.18 z"
         fill="#e0e0e0" />
      <path
         id="Path_1220"
         data-name="Path 1220"
         d="m 472.22,442.41 15.11,-47.25 5.86,1.89 -15.33,47.19 z"
         fill="#e1e1e1" />
      <path
         id="Path_1221"
         data-name="Path 1221"
         d="m 472.3,442.44 15.12,-47.26 5.85,1.9 -15.34,47.18 z"
         fill="#e2e2e2" />
      <path
         id="Path_1222"
         data-name="Path 1222"
         d="m 472.39,442.46 15.11,-47.25 5.86,1.9 -15.35,47.18 z"
         fill="#e3e3e3" />
      <path
         id="Path_1223"
         data-name="Path 1223"
         d="m 472.47,442.49 15.11,-47.25 5.86,1.89 -15.35,47.18 z"
         fill="#e4e4e4" />
      <path
         id="Path_1224"
         data-name="Path 1224"
         d="m 472.56,442.52 15.11,-47.26 5.84,1.9 -15.35,47.17 z"
         fill="#e5e5e5" />
      <path
         id="Path_1225"
         data-name="Path 1225"
         d="m 472.65,442.55 15.1,-47.26 5.84,1.89 -15.35,47.18 z"
         fill="#e6e6e6" />
      <path
         id="Path_1226"
         data-name="Path 1226"
         d="m 472.73,442.57 15.11,-47.25 5.83,1.89 -15.36,47.17 z"
         fill="#e7e7e7" />
      <path
         id="Path_1227"
         data-name="Path 1227"
         d="m 472.82,442.6 15.1,-47.25 5.83,1.89 -15.36,47.17 z"
         fill="#e8e8e8" />
      <path
         id="Path_1228"
         data-name="Path 1228"
         d="m 502.89,400.19 4.4,1.43 -15.28,47.2 -3.82,-1.24 z"
         fill="#5b5b5b" />
      <path
         id="Path_1229"
         data-name="Path 1229"
         d="m 502.83,400.17 4.43,1.44 -15.28,47.2 -3.86,-1.25 z"
         fill="#5c5c5c" />
      <path
         id="Path_1230"
         data-name="Path 1230"
         d="m 502.76,400.15 4.47,1.45 -15.28,47.2 -3.9,-1.26 z"
         fill="#5d5d5d" />
      <path
         id="Path_1231"
         data-name="Path 1231"
         d="m 502.7,400.13 4.5,1.46 -15.27,47.2 -3.95,-1.28 z"
         fill="#5e5e5e" />
      <path
         id="Path_1232"
         data-name="Path 1232"
         d="m 502.63,400.11 4.54,1.47 -15.27,47.2 -3.99,-1.29 z"
         fill="#5f5f5f" />
      <path
         id="Path_1233"
         data-name="Path 1233"
         d="m 502.57,400.09 4.57,1.48 -15.27,47.21 -4.03,-1.31 z"
         fill="#606060" />
      <path
         id="Path_1234"
         data-name="Path 1234"
         d="m 502.5,400.07 4.61,1.49 -15.26,47.21 -4.08,-1.32 z"
         fill="#616161" />
      <path
         id="Path_1235"
         data-name="Path 1235"
         d="m 502.44,400.05 4.63,1.5 -15.25,47.21 -4.12,-1.33 z"
         fill="#626262" />
      <path
         id="Path_1236"
         data-name="Path 1236"
         d="m 502.38,400.03 4.66,1.51 -15.25,47.21 -4.16,-1.35 z"
         fill="#636363" />
      <path
         id="Path_1237"
         data-name="Path 1237"
         d="m 502.31,400.01 4.7,1.52 -15.25,47.21 -4.19,-1.36 z"
         fill="#646464" />
      <path
         id="Path_1238"
         data-name="Path 1238"
         d="m 502.25,399.99 4.73,1.53 -15.24,47.21 -4.24,-1.37 z"
         fill="#656565" />
      <path
         id="Path_1239"
         data-name="Path 1239"
         d="m 502.18,399.96 4.77,1.55 -15.24,47.21 -4.28,-1.39 z"
         fill="#666666" />
      <path
         id="Path_1240"
         data-name="Path 1240"
         d="m 502.12,399.94 4.8,1.56 -15.24,47.21 -4.32,-1.4 z"
         fill="#676767" />
      <path
         id="Path_1241"
         data-name="Path 1241"
         d="m 502.05,399.92 4.84,1.57 -15.23,47.21 -4.37,-1.41 z"
         fill="#686868" />
      <path
         id="Path_1242"
         data-name="Path 1242"
         d="m 501.99,399.9 4.87,1.58 -15.23,47.22 -4.41,-1.43 z"
         fill="#696969" />
      <path
         id="Path_1243"
         data-name="Path 1243"
         d="m 501.92,399.88 4.9,1.59 -15.22,47.22 -4.45,-1.44 z"
         fill="#6a6a6a" />
      <path
         id="Path_1244"
         data-name="Path 1244"
         d="m 501.86,399.86 4.93,1.6 -15.21,47.22 -4.5,-1.46 z"
         fill="#6b6b6b" />
      <path
         id="Path_1245"
         data-name="Path 1245"
         d="m 501.79,399.84 4.97,1.61 -15.21,47.22 -4.54,-1.47 z"
         fill="#6c6c6c" />
      <path
         id="Path_1246"
         data-name="Path 1246"
         d="m 501.73,399.82 5,1.62 -15.21,47.22 -4.58,-1.48 z"
         fill="#6d6d6d" />
      <path
         id="Path_1247"
         data-name="Path 1247"
         d="m 501.66,399.8 5.04,1.63 -15.21,47.22 -4.62,-1.5 z"
         fill="#6e6e6e" />
      <path
         id="Path_1248"
         data-name="Path 1248"
         d="m 501.6,399.77 5.07,1.65 -15.2,47.22 -4.67,-1.51 z"
         fill="#6f6f6f" />
      <path
         id="Path_1249"
         data-name="Path 1249"
         d="m 501.53,399.75 5.11,1.66 -15.2,47.22 -4.71,-1.52 z"
         fill="#707070" />
      <path
         id="Path_1250"
         data-name="Path 1250"
         d="m 501.47,399.73 5.14,1.67 -15.2,47.23 -4.75,-1.54 z"
         fill="#717171" />
      <path
         id="Path_1251"
         data-name="Path 1251"
         d="m 501.4,399.71 5.17,1.68 -15.18,47.23 -4.8,-1.56 z"
         fill="#727272" />
      <path
         id="Path_1252"
         data-name="Path 1252"
         d="m 501.34,399.69 5.2,1.69 -15.18,47.23 -4.84,-1.57 z"
         fill="#737373" />
      <path
         id="Path_1253"
         data-name="Path 1253"
         d="m 501.27,399.67 5.24,1.7 -15.18,47.23 -4.88,-1.58 z"
         fill="#747474" />
      <path
         id="Path_1254"
         data-name="Path 1254"
         d="m 501.21,399.65 5.27,1.71 -15.17,47.23 -4.93,-1.59 z"
         fill="#757575" />
      <path
         id="Path_1255"
         data-name="Path 1255"
         d="m 501.14,399.63 5.31,1.72 -15.17,47.23 -4.97,-1.6 z"
         fill="#767676" />
      <path
         id="Path_1256"
         data-name="Path 1256"
         d="m 501.08,399.61 5.34,1.72 -15.17,47.24 -5,-1.62 z"
         fill="#777777" />
      <path
         id="Path_1257"
         data-name="Path 1257"
         d="m 501.01,399.59 5.38,1.73 -15.17,47.24 -5.04,-1.63 z"
         fill="#787878" />
      <path
         id="Path_1258"
         data-name="Path 1258"
         d="m 500.95,399.56 5.41,1.75 -15.16,47.25 -5.09,-1.65 z"
         fill="#797979" />
      <path
         id="Path_1259"
         data-name="Path 1259"
         d="m 500.88,399.54 5.44,1.77 -15.15,47.24 -5.13,-1.67 z"
         fill="#7a7a7a" />
      <path
         id="Path_1260"
         data-name="Path 1260"
         d="m 500.82,399.52 5.47,1.78 -15.15,47.24 -5.17,-1.68 z"
         fill="#7b7b7b" />
      <path
         id="Path_1261"
         data-name="Path 1261"
         d="m 500.75,399.5 5.51,1.79 -15.14,47.24 -5.22,-1.69 z"
         fill="#7c7c7c" />
      <path
         id="Path_1262"
         data-name="Path 1262"
         d="m 500.69,399.48 5.54,1.79 -15.14,47.25 -5.26,-1.7 z"
         fill="#7d7d7d" />
      <path
         id="Path_1263"
         data-name="Path 1263"
         d="m 500.63,399.46 5.57,1.8 -15.14,47.25 -5.3,-1.71 z"
         fill="#7e7e7e" />
      <path
         id="Path_1264"
         data-name="Path 1264"
         d="m 500.56,399.44 5.61,1.81 -15.14,47.25 -5.34,-1.73 z"
         fill="#7f7f7f" />
      <path
         id="Path_1265"
         data-name="Path 1265"
         d="m 500.5,399.42 5.64,1.82 -15.13,47.26 -5.39,-1.75 z"
         fill="#808080" />
      <path
         id="Path_1266"
         data-name="Path 1266"
         d="m 500.43,399.4 5.68,1.83 -15.13,47.26 -5.43,-1.76 z"
         fill="#818181" />
      <path
         id="Path_1267"
         data-name="Path 1267"
         d="m 500.37,399.38 5.7,1.84 -15.12,47.26 -5.47,-1.78 z"
         fill="#828282" />
      <path
         id="Path_1268"
         data-name="Path 1268"
         d="m 500.3,399.36 5.74,1.85 -15.11,47.26 -5.52,-1.79 z"
         fill="#838383" />
      <path
         id="Path_1269"
         data-name="Path 1269"
         d="m 500.24,399.33 5.77,1.87 -15.11,47.26 -5.56,-1.8 z"
         fill="#848484" />
      <path
         id="Path_1270"
         data-name="Path 1270"
         d="m 500.17,399.31 5.81,1.88 -15.11,47.26 -5.6,-1.81 z"
         fill="#858585" />
      <path
         id="Path_1271"
         data-name="Path 1271"
         d="m 500.11,399.29 5.84,1.89 -15.1,47.26 -5.65,-1.82 z"
         fill="#868686" />
      <path
         id="Path_1272"
         data-name="Path 1272"
         d="m 500.04,399.27 5.88,1.9 -15.1,47.26 -5.69,-1.84 z"
         fill="#878787" />
      <path
         id="Path_1273"
         data-name="Path 1273"
         d="m 499.98,399.25 5.91,1.91 -15.1,47.27 -5.73,-1.86 z"
         fill="#888888" />
      <path
         id="Path_1274"
         data-name="Path 1274"
         d="m 499.91,399.23 5.95,1.92 -15.1,47.27 -5.77,-1.87 z"
         fill="#898989" />
      <path
         id="Path_1275"
         data-name="Path 1275"
         d="m 499.85,399.21 5.98,1.93 -15.09,47.27 -5.81,-1.89 z"
         fill="#8a8a8a" />
      <path
         id="Path_1276"
         data-name="Path 1276"
         d="m 499.78,399.19 6.02,1.94 -15.09,47.27 -5.85,-1.9 z"
         fill="#8b8b8b" />
      <path
         id="Path_1277"
         data-name="Path 1277"
         d="m 499.72,399.17 6.04,1.95 -15.08,47.27 -5.89,-1.91 z"
         fill="#8c8c8c" />
      <path
         id="Path_1278"
         data-name="Path 1278"
         d="m 499.65,399.14 6.08,1.97 -15.08,47.27 -5.93,-1.92 z"
         fill="#8d8d8d" />
      <path
         id="Path_1279"
         data-name="Path 1279"
         d="m 499.59,399.12 6.11,1.98 -15.07,47.27 -5.98,-1.93 z"
         fill="#8e8e8e" />
      <path
         id="Path_1280"
         data-name="Path 1280"
         d="m 499.52,399.1 6.15,1.99 -15.07,47.27 -6.02,-1.95 z"
         fill="#8f8f8f" />
      <path
         id="Path_1281"
         data-name="Path 1281"
         d="m 499.46,399.08 6.18,2 -15.07,47.28 -6.06,-1.97 z"
         fill="#909090" />
      <path
         id="Path_1282"
         data-name="Path 1282"
         d="m 499.39,399.06 6.22,2.01 -15.06,47.28 -6.11,-1.98 z"
         fill="#919191" />
      <path
         id="Path_1283"
         data-name="Path 1283"
         d="m 499.33,399.04 6.25,2.02 -15.06,47.28 -6.15,-1.99 z"
         fill="#929292" />
      <path
         id="Path_1284"
         data-name="Path 1284"
         d="m 499.26,399.02 6.29,2.03 -15.06,47.28 -6.19,-2.01 z"
         fill="#939393" />
      <path
         id="Path_1285"
         data-name="Path 1285"
         d="m 499.2,399 6.31,2.04 -15.04,47.28 -6.24,-2.02 z"
         fill="#949494" />
      <path
         id="Path_1286"
         data-name="Path 1286"
         d="m 499.13,398.98 6.35,2.05 -15.04,47.28 -6.28,-2.03 z"
         fill="#959595" />
      <path
         id="Path_1287"
         data-name="Path 1287"
         d="m 499.07,398.96 6.38,2.06 -15.04,47.28 -6.32,-2.05 z"
         fill="#969696" />
      <path
         id="Path_1288"
         data-name="Path 1288"
         d="m 499,398.94 6.42,2.07 -15.04,47.28 -6.36,-2.06 z"
         fill="#979797" />
      <path
         id="Path_1289"
         data-name="Path 1289"
         d="m 498.94,398.91 6.45,2.09 -15.03,47.28 -6.41,-2.07 z"
         fill="#989898" />
      <path
         id="Path_1290"
         data-name="Path 1290"
         d="m 498.88,398.89 6.48,2.1 -15.03,47.29 -6.45,-2.09 z"
         fill="#999999" />
      <path
         id="Path_1291"
         data-name="Path 1291"
         d="m 498.81,398.87 6.52,2.11 -15.03,47.29 -6.49,-2.1 z"
         fill="#9a9a9a" />
      <path
         id="Path_1292"
         data-name="Path 1292"
         d="m 498.75,398.85 6.55,2.12 -15.02,47.29 -6.54,-2.12 z"
         fill="#9b9b9b" />
      <path
         id="Path_1293"
         data-name="Path 1293"
         d="m 498.68,398.83 6.58,2.13 -15.01,47.29 -6.58,-2.13 z"
         fill="#9c9c9c" />
      <path
         id="Path_1294"
         data-name="Path 1294"
         d="m 498.62,398.81 6.61,2.14 -15.01,47.29 -6.62,-2.14 z"
         fill="#9d9d9d" />
      <path
         id="Path_1295"
         data-name="Path 1295"
         d="m 498.55,398.79 6.65,2.15 -15.01,47.29 -6.65,-2.16 z"
         fill="#9e9e9e" />
      <path
         id="Path_1296"
         data-name="Path 1296"
         d="m 498.49,398.77 6.68,2.16 -15,47.29 -6.71,-2.17 z"
         fill="#9f9f9f" />
      <path
         id="Path_1297"
         data-name="Path 1297"
         d="m 498.42,398.75 6.72,2.17 -15,47.29 -6.74,-2.18 z"
         fill="#a0a0a0" />
      <path
         id="Path_1298"
         data-name="Path 1298"
         d="m 498.36,398.73 6.75,2.18 -15,47.29 -6.78,-2.19 z"
         fill="#a1a1a1" />
      <path
         id="Path_1299"
         data-name="Path 1299"
         d="m 498.29,398.7 6.79,2.2 -14.99,47.3 -6.83,-2.22 z"
         fill="#a2a2a2" />
      <path
         id="Path_1300"
         data-name="Path 1300"
         d="m 498.23,398.68 6.82,2.21 -14.99,47.3 -6.87,-2.23 z"
         fill="#a3a3a3" />
      <path
         id="Path_1301"
         data-name="Path 1301"
         d="m 498.16,398.66 6.85,2.22 -14.98,47.3 -6.91,-2.24 z"
         fill="#a4a4a4" />
      <path
         id="Path_1302"
         data-name="Path 1302"
         d="m 498.1,398.64 6.88,2.23 -14.98,47.3 -6.95,-2.25 z"
         fill="#a5a5a5" />
      <path
         id="Path_1303"
         data-name="Path 1303"
         d="m 498.03,398.62 6.92,2.24 -14.97,47.3 -7,-2.27 z"
         fill="#a6a6a6" />
      <path
         id="Path_1304"
         data-name="Path 1304"
         d="m 497.97,398.6 6.95,2.25 -14.97,47.3 -7.04,-2.28 z"
         fill="#a7a7a7" />
      <path
         id="Path_1305"
         data-name="Path 1305"
         d="m 497.9,398.58 6.99,2.26 -14.97,47.3 -7.08,-2.29 z"
         fill="#a8a8a8" />
      <path
         id="Path_1306"
         data-name="Path 1306"
         d="m 497.84,398.56 7.02,2.27 -14.96,47.3 -7.13,-2.3 z"
         fill="#a9a9a9" />
      <path
         id="Path_1307"
         data-name="Path 1307"
         d="m 497.77,398.54 7.06,2.28 -14.96,47.31 -7.17,-2.33 z"
         fill="#aaaaaa" />
      <path
         id="Path_1308"
         data-name="Path 1308"
         d="m 497.71,398.51 7.09,2.3 -14.96,47.31 -7.21,-2.34 z"
         fill="#ababab" />
      <path
         id="Path_1309"
         data-name="Path 1309"
         d="m 497.64,398.49 7.12,2.31 -14.94,47.31 -7.26,-2.35 z"
         fill="#acacac" />
      <path
         id="Path_1310"
         data-name="Path 1310"
         d="m 497.58,398.47 7.15,2.32 -14.94,47.31 -7.3,-2.36 z"
         fill="#adadad" />
      <path
         id="Path_1311"
         data-name="Path 1311"
         d="m 497.51,398.45 7.19,2.33 -14.94,47.31 -7.34,-2.38 z"
         fill="#aeaeae" />
      <path
         id="Path_1312"
         data-name="Path 1312"
         d="m 497.45,398.43 7.22,2.34 -14.93,47.31 -7.39,-2.39 z"
         fill="#afafaf" />
      <path
         id="Path_1313"
         data-name="Path 1313"
         d="m 497.38,398.41 7.26,2.35 -14.93,47.31 -7.43,-2.4 z"
         fill="#b0b0b0" />
      <path
         id="Path_1314"
         data-name="Path 1314"
         d="m 497.32,398.39 7.29,2.36 -14.93,47.31 -7.47,-2.41 z"
         fill="#b1b1b1" />
      <path
         id="Path_1315"
         data-name="Path 1315"
         d="m 497.25,398.37 7.33,2.37 -14.93,47.32 -7.51,-2.44 z"
         fill="#b2b2b2" />
      <path
         id="Path_1316"
         data-name="Path 1316"
         d="m 497.19,398.35 7.36,2.38 -14.92,47.32 -7.56,-2.45 z"
         fill="#b3b3b3" />
      <path
         id="Path_1317"
         data-name="Path 1317"
         d="m 497.13,398.33 7.39,2.39 -14.92,47.32 -7.59,-2.46 z"
         fill="#b4b4b4" />
      <path
         id="Path_1318"
         data-name="Path 1318"
         d="m 497.06,398.31 7.42,2.4 -14.91,47.32 -7.63,-2.47 z"
         fill="#b5b5b5" />
      <path
         id="Path_1319"
         data-name="Path 1319"
         d="m 497,398.28 7.45,2.42 -14.9,47.32 -7.68,-2.49 z"
         fill="#b6b6b6" />
      <path
         id="Path_1320"
         data-name="Path 1320"
         d="m 496.93,398.26 7.49,2.43 -14.9,47.32 -7.72,-2.5 z"
         fill="#b7b7b7" />
      <path
         id="Path_1321"
         data-name="Path 1321"
         d="m 496.87,398.24 7.52,2.44 -14.9,47.32 -7.76,-2.51 z"
         fill="#b8b8b8" />
      <path
         id="Path_1322"
         data-name="Path 1322"
         d="m 496.8,398.22 7.56,2.45 -14.9,47.33 -7.8,-2.53 z"
         fill="#b9b9b9" />
      <path
         id="Path_1323"
         data-name="Path 1323"
         d="m 496.74,398.2 7.59,2.46 -14.89,47.33 -7.85,-2.55 z"
         fill="#bababa" />
      <path
         id="Path_1324"
         data-name="Path 1324"
         d="m 496.67,398.18 7.63,2.47 -14.89,47.33 -7.89,-2.56 z"
         fill="#bbbbbb" />
      <path
         id="Path_1325"
         data-name="Path 1325"
         d="m 496.61,398.16 7.66,2.48 -14.89,47.33 -7.93,-2.57 z"
         fill="#bcbcbc" />
      <path
         id="Path_1326"
         data-name="Path 1326"
         d="m 496.54,398.14 7.7,2.49 -14.88,47.33 -7.98,-2.58 z"
         fill="#bdbdbd" />
      <path
         id="Path_1327"
         data-name="Path 1327"
         d="m 496.48,398.12 7.72,2.5 -14.87,47.33 -8.02,-2.6 z"
         fill="#bebebe" />
      <path
         id="Path_1328"
         data-name="Path 1328"
         d="m 496.41,398.1 7.76,2.51 -14.87,47.33 -8.06,-2.61 z"
         fill="#bfbfbf" />
      <path
         id="Path_1329"
         data-name="Path 1329"
         d="m 496.35,398.07 7.79,2.53 -14.87,47.33 -8.1,-2.62 z"
         fill="#c0c0c0" />
      <path
         id="Path_1330"
         data-name="Path 1330"
         d="m 496.28,398.05 7.83,2.54 -14.86,47.34 -8.15,-2.64 z"
         fill="#c1c1c1" />
      <path
         id="Path_1331"
         data-name="Path 1331"
         d="m 496.22,398.03 7.86,2.55 -14.86,47.34 -8.19,-2.66 z"
         fill="#c2c2c2" />
      <path
         id="Path_1332"
         data-name="Path 1332"
         d="m 496.15,398.01 7.9,2.56 -14.86,47.34 -8.23,-2.67 z"
         fill="#c3c3c3" />
      <path
         id="Path_1333"
         data-name="Path 1333"
         d="m 496.09,397.99 7.93,2.57 -14.85,47.34 -8.28,-2.68 z"
         fill="#c4c4c4" />
      <path
         id="Path_1334"
         data-name="Path 1334"
         d="m 496.02,397.97 7.97,2.58 -14.85,47.34 -8.32,-2.69 z"
         fill="#c5c5c5" />
      <path
         id="Path_1335"
         data-name="Path 1335"
         d="m 495.96,397.95 7.99,2.59 -14.84,47.34 -8.36,-2.71 z"
         fill="#c6c6c6" />
      <path
         id="Path_1336"
         data-name="Path 1336"
         d="m 495.89,397.93 8.03,2.6 -14.84,47.34 -8.39,-2.72 z"
         fill="#c7c7c7" />
      <path
         id="Path_1337"
         data-name="Path 1337"
         d="m 495.83,397.91 8.06,2.61 -14.83,47.34 -8.44,-2.73 z"
         fill="#c8c8c8" />
      <path
         id="Path_1338"
         data-name="Path 1338"
         d="m 495.76,397.89 8.1,2.62 -14.83,47.35 -8.48,-2.75 z"
         fill="#c9c9c9" />
      <path
         id="Path_1339"
         data-name="Path 1339"
         d="m 495.7,397.87 8.13,2.63 -14.83,47.35 -8.52,-2.77 z"
         fill="#cacaca" />
      <path
         id="Path_1340"
         data-name="Path 1340"
         d="m 495.63,397.84 8.17,2.65 -14.82,47.35 -8.57,-2.78 z"
         fill="#cbcbcb" />
      <path
         id="Path_1341"
         data-name="Path 1341"
         d="m 495.57,397.82 8.2,2.66 -14.82,47.35 -8.61,-2.79 z"
         fill="#cccccc" />
      <path
         id="Path_1342"
         data-name="Path 1342"
         d="m 495.5,397.8 8.24,2.67 -14.82,47.35 -8.65,-2.8 z"
         fill="#cdcdcd" />
      <path
         id="Path_1343"
         data-name="Path 1343"
         d="m 495.44,397.78 8.26,2.68 -14.81,47.35 -8.69,-2.82 z"
         fill="#cecece" />
      <path
         id="Path_1344"
         data-name="Path 1344"
         d="m 495.38,397.76 8.29,2.69 -14.8,47.35 -8.74,-2.83 z"
         fill="#cfcfcf" />
      <path
         id="Path_1345"
         data-name="Path 1345"
         d="m 495.31,397.74 8.33,2.7 -14.8,47.35 -8.78,-2.84 z"
         fill="#d0d0d0" />
      <path
         id="Path_1346"
         data-name="Path 1346"
         d="m 495.25,397.72 8.36,2.71 -14.8,47.35 -8.82,-2.85 z"
         fill="#d1d1d1" />
      <path
         id="Path_1347"
         data-name="Path 1347"
         d="m 495.18,397.7 8.4,2.72 -14.79,47.36 -8.87,-2.88 z"
         fill="#d2d2d2" />
      <path
         id="Path_1348"
         data-name="Path 1348"
         d="m 495.12,397.68 8.43,2.73 -14.79,47.36 -8.91,-2.89 z"
         fill="#d3d3d3" />
      <path
         id="Path_1349"
         data-name="Path 1349"
         d="m 495.05,397.65 8.47,2.75 -14.79,47.36 -8.95,-2.9 z"
         fill="#d4d4d4" />
      <path
         id="Path_1350"
         data-name="Path 1350"
         d="m 494.99,397.63 8.5,2.76 -14.78,47.36 -9,-2.91 z"
         fill="#d5d5d5" />
      <path
         id="Path_1351"
         data-name="Path 1351"
         d="m 494.92,397.61 8.53,2.77 -14.77,47.36 -9.04,-2.93 z"
         fill="#d6d6d6" />
      <path
         id="Path_1352"
         data-name="Path 1352"
         d="m 494.86,397.59 8.56,2.78 -14.77,47.36 -9.08,-2.94 z"
         fill="#d7d7d7" />
      <path
         id="Path_1353"
         data-name="Path 1353"
         d="m 494.79,397.57 8.6,2.79 -14.76,47.36 -9.13,-2.95 z"
         fill="#d8d8d8" />
      <path
         id="Path_1354"
         data-name="Path 1354"
         d="m 494.73,397.55 8.63,2.8 -14.76,47.36 -9.17,-2.96 z"
         fill="#d9d9d9" />
      <path
         id="Path_1355"
         data-name="Path 1355"
         d="m 494.66,397.53 8.67,2.81 -14.76,47.36 -9.21,-2.98 z"
         fill="#dadada" />
      <path
         id="Path_1356"
         data-name="Path 1356"
         d="m 494.6,397.51 8.7,2.82 -14.76,47.37 -9.24,-3 z"
         fill="#dbdbdb" />
      <path
         id="Path_1357"
         data-name="Path 1357"
         d="m 494.53,397.49 8.74,2.83 -14.75,47.37 -9.29,-3.01 z"
         fill="#dcdcdc" />
      <path
         id="Path_1358"
         data-name="Path 1358"
         d="m 494.47,397.47 8.77,2.84 -14.75,47.37 -9.33,-3.02 z"
         fill="#dddddd" />
      <path
         id="Path_1359"
         data-name="Path 1359"
         d="m 494.4,397.44 8.8,2.86 -14.74,47.37 -9.37,-3.04 z"
         fill="#dedede" />
      <path
         id="Path_1360"
         data-name="Path 1360"
         d="m 494.34,397.42 8.83,2.87 -14.73,47.37 -9.42,-3.05 z"
         fill="#dfdfdf" />
      <path
         id="Path_1361"
         data-name="Path 1361"
         d="m 494.27,397.4 8.87,2.87 -14.73,47.38 -9.46,-3.06 z"
         fill="#e0e0e0" />
      <path
         id="Path_1362"
         data-name="Path 1362"
         d="m 494.21,397.38 8.9,2.88 -14.73,47.38 -9.5,-3.07 z"
         fill="#e1e1e1" />
      <path
         id="Path_1363"
         data-name="Path 1363"
         d="m 494.14,397.36 8.94,2.89 -14.73,47.38 -9.54,-3.09 z"
         fill="#e2e2e2" />
      <path
         id="Path_1364"
         data-name="Path 1364"
         d="m 494.08,397.34 8.97,2.91 -14.72,47.38 -9.59,-3.11 z"
         fill="#e3e3e3" />
      <path
         id="Path_1365"
         data-name="Path 1365"
         d="m 494.01,397.32 9.01,2.92 -14.72,47.38 -9.63,-3.12 z"
         fill="#e4e4e4" />
      <path
         id="Path_1366"
         data-name="Path 1366"
         d="m 493.95,397.3 9.04,2.93 -14.72,47.38 -9.67,-3.13 z"
         fill="#e5e5e5" />
      <path
         id="Path_1367"
         data-name="Path 1367"
         d="m 493.88,397.28 9.08,2.93 -14.71,47.39 -9.72,-3.15 z"
         fill="#e6e6e6" />
      <path
         id="Path_1368"
         data-name="Path 1368"
         d="m 493.82,397.26 9.1,2.94 -14.7,47.39 -9.76,-3.16 z"
         fill="#e7e7e7" />
      <path
         id="Path_1369"
         data-name="Path 1369"
         d="m 478.39,444.41 15.36,-47.17 9.14,2.95 -14.7,47.39 z"
         fill="#e8e8e8" />
    </g>
  </g>
</svg>
